<svg xmlns="http://www.w3.org/2000/svg" version="1.1" xmlns:xlink="http://www.w3.org/1999/xlink" xmlns:svgjs="http://svgjs.dev/svgjs" width="1597" height="636" preserveAspectRatio="none" viewBox="0 0 1597 636"><g mask="url(&quot;#SvgjsMask1007&quot;)" fill="none"><rect width="1597" height="636" x="0" y="0" fill="rgba(88, 105, 230, 1)"></rect><path d="M1236.81 270.36 a164.08 164.08 0 1 0 328.16 0 a164.08 164.08 0 1 0 -328.16 0z" fill="rgba(83, 113, 143, 0.4)" class="triangle-float1"></path><path d="M1321.9289977911392 184.8161450745331L1420.1826771939423 207.4997943096892 1405.0813113452748 48.777450587906515z" fill="rgba(83, 113, 143, 0.4)" class="triangle-float3"></path><path d="M1063.3114987211966 332.1623185511899L1014.832357766414 267.82832559053975 942.57093880283 372.71403350303865z" fill="rgba(83, 113, 143, 0.4)" class="triangle-float1"></path><path d="M717.7357154013898 519.6691524163692L842.6890629417531 663.4115358033102 861.4780987883307 394.7158048760059z" fill="rgba(83, 113, 143, 0.4)" class="triangle-float3"></path><path d="M1124.9717779535786 623.1664965430772L1208.9888032308763 515.6296080776455 1101.4519147654446 431.61258280034764 1017.4348894881468 539.1494712657794z" fill="rgba(83, 113, 143, 0.4)" class="triangle-float2"></path><path d="M219.87 473.48 a188.72 188.72 0 1 0 377.44 0 a188.72 188.72 0 1 0 -377.44 0z" fill="rgba(83, 113, 143, 0.4)" class="triangle-float3"></path><path d="M555.68 40.4 a108.27 108.27 0 1 0 216.54 0 a108.27 108.27 0 1 0 -216.54 0z" fill="rgba(83, 113, 143, 0.4)" class="triangle-float1"></path><path d="M1153.56 92.02 a184.47 184.47 0 1 0 368.94 0 a184.47 184.47 0 1 0 -368.94 0z" fill="rgba(83, 113, 143, 0.4)" class="triangle-float2"></path><path d="M865.1808239848256 288.5163464349061L1009.766785176677 208.55107611114545 887.2804158383947 132.01309788500646z" fill="rgba(83, 113, 143, 0.4)" class="triangle-float2"></path><path d="M901.3727887285206 302.81973697366004L906.7465017749831 148.93672910545035 752.8634939067734 143.5630160589878 747.4897808603109 297.4460239271975z" fill="rgba(83, 113, 143, 0.4)" class="triangle-float2"></path><path d="M1484.2319987778621 402.1023690667703L1368.4158039215738 474.31897835038603 1472.7674465678554 532.1620384031846z" fill="rgba(83, 113, 143, 0.4)" class="triangle-float2"></path><path d="M529.32 363.6 a163.33 163.33 0 1 0 326.66 0 a163.33 163.33 0 1 0 -326.66 0z" fill="rgba(83, 113, 143, 0.4)" class="triangle-float3"></path><path d="M638.7530248540321 99.1052913516877L673.2289603279429 188.91817384986172 763.041842826117 154.44223837595092 728.5659073522061 64.62935587777689z" fill="rgba(83, 113, 143, 0.4)" class="triangle-float3"></path><path d="M498.12 351.54 a147.61 147.61 0 1 0 295.22 0 a147.61 147.61 0 1 0 -295.22 0z" fill="rgba(83, 113, 143, 0.4)" class="triangle-float3"></path><path d="M5.04 112.73 a138.26 138.26 0 1 0 276.52 0 a138.26 138.26 0 1 0 -276.52 0z" fill="rgba(83, 113, 143, 0.4)" class="triangle-float1"></path><path d="M1343.41 261.05 a171.82 171.82 0 1 0 343.64 0 a171.82 171.82 0 1 0 -343.64 0z" fill="rgba(83, 113, 143, 0.4)" class="triangle-float1"></path><path d="M1422.1580371996586 175.57920339243188L1494.0055781034896 264.30352735860845 1582.7299020696662 192.45598645477747 1510.8823611658352 103.73166248860089z" fill="rgba(83, 113, 143, 0.4)" class="triangle-float3"></path><path d="M922.45 508.99 a165.49 165.49 0 1 0 330.98 0 a165.49 165.49 0 1 0 -330.98 0z" fill="rgba(83, 113, 143, 0.4)" class="triangle-float2"></path><path d="M367.26302836512417 554.0006529998924L311.2224359007069 444.01479749449436 174.2639488748184 583.0686139438193z" fill="rgba(83, 113, 143, 0.4)" class="triangle-float2"></path><path d="M-103.06 292.38 a119.69 119.69 0 1 0 239.38 0 a119.69 119.69 0 1 0 -239.38 0z" fill="rgba(83, 113, 143, 0.4)" class="triangle-float3"></path></g><defs><mask id="SvgjsMask1007"><rect width="1597" height="636" fill="#ffffff"></rect></mask><style>
                @keyframes float1 {
                    0%{transform: translate(0, 0)}
                    50%{transform: translate(-10px, 0)}
                    100%{transform: translate(0, 0)}
                }

                .triangle-float1 {
                    animation: float1 5s infinite;
                }

                @keyframes float2 {
                    0%{transform: translate(0, 0)}
                    50%{transform: translate(-5px, -5px)}
                    100%{transform: translate(0, 0)}
                }

                .triangle-float2 {
                    animation: float2 4s infinite;
                }

                @keyframes float3 {
                    0%{transform: translate(0, 0)}
                    50%{transform: translate(0, -10px)}
                    100%{transform: translate(0, 0)}
                }

                .triangle-float3 {
                    animation: float3 6s infinite;
                }
            </style></defs></svg>