<svg xmlns="http://www.w3.org/2000/svg" version="1.1" xmlns:xlink="http://www.w3.org/1999/xlink" xmlns:svgjs="http://svgjs.dev/svgjs" width="1597" height="636" preserveAspectRatio="none" viewBox="0 0 1597 636"><g mask="url(&quot;#SvgjsMask1015&quot;)" fill="none"><rect width="1597" height="636" x="0" y="0" fill="rgba(88, 105, 230, 1)"></rect><path d="M-14.617989657840134 543.5441570336054L-53.03067898281601 655.1027072119823 133.5134909472373 656.9424661102577z" fill="rgba(107, 116, 139, 0.4)" class="triangle-float1"></path><path d="M591.0026238912753 295.2675706801449L570.73320978591 409.58394985140336 666.6931187256589 376.54230343468595z" fill="rgba(107, 116, 139, 0.4)" class="triangle-float2"></path><path d="M992.997976571701 238.58248189002455L920.0984309634357 183.64873404626286 874.1475820019258 320.46492638054167z" fill="rgba(107, 116, 139, 0.4)" class="triangle-float3"></path><path d="M1409.6658184228022 93.84837697990115L1280.2948502811678-31.08371474039862 1155.362758560868 98.28725340123569 1284.7337267025025 223.21934512153547z" fill="rgba(107, 116, 139, 0.4)" class="triangle-float3"></path><path d="M501.721952717743 344.1996731618585L608.8465305302823 372.9036172762534 637.5504746446771 265.7790394637142 530.4258968321379 237.07509534931933z" fill="rgba(107, 116, 139, 0.4)" class="triangle-float2"></path><path d="M117.61216133029734 392.0974077180832L123.77376639972624 568.5426911155466 300.21904979718965 562.3810860461177 294.05744472776075 385.9358026486543z" fill="rgba(107, 116, 139, 0.4)" class="triangle-float1"></path><path d="M1486.9909364010912 4.239789021179469L1459.4507080851595 123.52962354391552 1652.1555740272295 105.19504875644522z" fill="rgba(107, 116, 139, 0.4)" class="triangle-float3"></path><path d="M1512.4125203950073 288.148499957509L1404.722980752612 242.43700241010637 1466.7010228476047 395.83803959990416z" fill="rgba(107, 116, 139, 0.4)" class="triangle-float1"></path><path d="M952.3869353341407 398.66859022223974L1095.5433735147244 274.2245970788498 971.0993803713344 131.06815889826618 827.9429421907507 255.51215204165612z" fill="rgba(107, 116, 139, 0.4)" class="triangle-float1"></path><path d="M1556.5751153559524 310.74260183174374L1665.5335715307663 228.63651588826497 1583.4274855872875 119.67805971345109 1474.4690294124737 201.78414565692987z" fill="rgba(107, 116, 139, 0.4)" class="triangle-float2"></path><path d="M682.3988252624031-43.11487934578176L504.577380284961 7.874599490463503 555.5668591212063 185.69604446790555 733.3883040986483 134.70656563166028z" fill="rgba(107, 116, 139, 0.4)" class="triangle-float1"></path><path d="M255.96622147255675 426.1667910384149L371.82759843832537 432.23882850986615 323.00496616261796 255.41074432548754z" fill="rgba(107, 116, 139, 0.4)" class="triangle-float1"></path><path d="M1530.7933662340222 338.1093925530151L1433.3686351727943 259.21640090131496 1363.741513225858 444.79999331900706z" fill="rgba(107, 116, 139, 0.4)" class="triangle-float2"></path><path d="M538.1812122809093 86.73143504721853L569.6276589239012 204.09117163636813 686.9873955130508 172.64472499337623 655.540948870059 55.28498840422662z" fill="rgba(107, 116, 139, 0.4)" class="triangle-float2"></path><path d="M1201.3898888057936 553.3683625088082L1317.9671839233329 576.0286931721945 1293.6690323596426 389.83258516419244z" fill="rgba(107, 116, 139, 0.4)" class="triangle-float3"></path><path d="M734.7018259240457 493.9923142556159L920.7185729433655 440.84467225009587 801.1363784309457 321.262477737676z" fill="rgba(107, 116, 139, 0.4)" class="triangle-float3"></path><path d="M1156.222665024326 194.8843089201569L1306.494393085576 304.28207049993586 1326.2961942667632 143.00934178247078z" fill="rgba(107, 116, 139, 0.4)" class="triangle-float1"></path><path d="M579.4829915649225 166.26491483744832L719.0637797073823 131.4635156946117 684.2623805645457-8.11727244784808 544.6815924220858 26.68412669498855z" fill="rgba(107, 116, 139, 0.4)" class="triangle-float3"></path><path d="M649.8698550721267 363.5931137556947L694.1307304058496 241.9873582109951 572.52497486115 197.72648287727225 528.2640995274271 319.33223842197185z" fill="rgba(107, 116, 139, 0.4)" class="triangle-float1"></path><path d="M233.65204842510565 528.3306876135965L263.1010156627044 631.031441314196 402.42766259480413 535.5076136074981z" fill="rgba(107, 116, 139, 0.4)" class="triangle-float2"></path></g><defs><mask id="SvgjsMask1015"><rect width="1597" height="636" fill="#ffffff"></rect></mask><style>
                @keyframes float1 {
                    0%{transform: translate(0, 0)}
                    50%{transform: translate(-10px, 0)}
                    100%{transform: translate(0, 0)}
                }

                .triangle-float1 {
                    animation: float1 5s infinite;
                }

                @keyframes float2 {
                    0%{transform: translate(0, 0)}
                    50%{transform: translate(-5px, -5px)}
                    100%{transform: translate(0, 0)}
                }

                .triangle-float2 {
                    animation: float2 4s infinite;
                }

                @keyframes float3 {
                    0%{transform: translate(0, 0)}
                    50%{transform: translate(0, -10px)}
                    100%{transform: translate(0, 0)}
                }

                .triangle-float3 {
                    animation: float3 6s infinite;
                }
            </style></defs></svg>