<svg xmlns="http://www.w3.org/2000/svg" version="1.1" xmlns:xlink="http://www.w3.org/1999/xlink" xmlns:svgjs="http://svgjs.dev/svgjs" width="1440" height="560" preserveAspectRatio="none" viewBox="0 0 1440 560"><g mask="url(&quot;#SvgjsMask1389&quot;)" fill="none"><rect width="1440" height="560" x="0" y="0" fill="url(&quot;#SvgjsRadialGradient1390&quot;)"></rect><path d="M324.44 596.75C475.91 559.37 522.57 157.41 759.57 149.4 996.57 141.39 977.13 219.4 1194.69 219.4 1412.26 219.4 1519.64 149.62 1629.82 149.4" stroke="rgba(10, 8, 70, 0.41)" stroke-width="2"></path><path d="M710.96 631.03C824.77 589.82 783.28 250.22 1009.52 249.89 1235.76 249.56 1444.69 496.8 1606.64 501.89" stroke="rgba(10, 8, 70, 0.41)" stroke-width="2"></path><path d="M662.56 616.81C812.89 597.64 871.69 271.98 1148.66 254.63 1425.63 237.28 1505.74 83.61 1634.76 81.03" stroke="rgba(10, 8, 70, 0.41)" stroke-width="2"></path><path d="M64.91 640.63C195.17 634.24 294.63 407.88 531.45 407.26 768.27 406.64 764.72 477.26 997.99 477.26 1231.26 477.26 1346.59 407.45 1464.53 407.26" stroke="rgba(10, 8, 70, 0.41)" stroke-width="2"></path><path d="M425.9 600.21C537.65 597.55 633.67 441.32 843.81 441.19 1053.95 441.06 1052.77 511.19 1261.73 511.19 1470.68 511.19 1573.71 441.43 1679.64 441.19" stroke="rgba(10, 8, 70, 0.41)" stroke-width="2"></path></g><defs><mask id="SvgjsMask1389"><rect width="1440" height="560" fill="#ffffff"></rect></mask><radialGradient cx="50%" cy="50%" r="772.53" gradientUnits="userSpaceOnUse" id="SvgjsRadialGradient1390"><stop stop-color="#0e2a47" offset="0"></stop><stop stop-color="rgba(86, 105, 230, 1)" offset="0.84"></stop></radialGradient></defs></svg>