<svg xmlns="http://www.w3.org/2000/svg" version="1.1" xmlns:xlink="http://www.w3.org/1999/xlink" xmlns:svgjs="http://svgjs.dev/svgjs" width="1440" height="560" preserveAspectRatio="none" viewBox="0 0 1440 560"><g mask="url(&quot;#SvgjsMask1016&quot;)" fill="none"><rect width="1440" height="560" x="0" y="0" fill="#0e2a47"></rect><path d="M583.09 649.54C754.82 610.85 823.44 159.92 1086 156.67 1348.55 153.42 1454.5 343.92 1588.9 347.07" stroke="rgba(51,121,194,0.58)" stroke-width="2"></path><path d="M632.21 668.02C757.58 631.61 714.53 278.81 979.42 277.98 1244.31 277.15 1493.47 472.11 1673.85 473.98" stroke="rgba(51,121,194,0.58)" stroke-width="2"></path><path d="M638.91 624.05C759.26 619.64 838.04 436.19 1078.68 427.41 1319.32 418.63 1398.16 235.78 1518.45 231.41" stroke="rgba(51,121,194,0.58)" stroke-width="2"></path><path d="M412.67 647.36C532.4 640.95 622.35 427.48 838.62 426.9 1054.89 426.32 1051.59 496.9 1264.56 496.9 1477.54 496.9 1582.6 427.13 1690.51 426.9" stroke="rgba(51,121,194,0.58)" stroke-width="2"></path><path d="M276.12 593.22C478.2 580.54 604.82 211.83 985.36 202.14 1365.89 192.45 1512.7 40.77 1694.59 39.74" stroke="rgba(51,121,194,0.58)" stroke-width="2"></path></g><defs><mask id="SvgjsMask1016"><rect width="1440" height="560" fill="#ffffff"></rect></mask></defs></svg>