<svg xmlns="http://www.w3.org/2000/svg" version="1.1" xmlns:xlink="http://www.w3.org/1999/xlink" xmlns:svgjs="http://svgjs.dev/svgjs" width="1583" height="638" preserveAspectRatio="none" viewBox="0 0 1583 638"><g mask="url(&quot;#SvgjsMask1533&quot;)" fill="none"><rect width="1583" height="638" x="0" y="0" fill="rgba(88, 105, 230, 1)"></rect><path d="M0 -145L125.58 -72.5L125.58 72.5L0 145L-125.58 72.5L-125.58 -72.5zM125.58 72.5L251.15 145L251.15 290L125.58 362.5L0 290L0 145zM0 290L125.58 362.5L125.58 507.5L0 580L-125.58 507.5L-125.58 362.5zM125.58 507.5L251.15 580L251.15 725L125.58 797.5L0 725L0 580zM251.15 -145L376.73 -72.5L376.73 72.5L251.15 145L125.58 72.5L125.58 -72.5zM376.73 72.5L502.31 145L502.31 290L376.73 362.5L251.15 290L251.15 145zM251.15 290L376.73 362.5L376.73 507.5L251.15 580L125.58 507.5L125.58 362.5zM376.73 507.5L502.31 580L502.31 725L376.73 797.5L251.15 725L251.15 580zM502.31 -145L627.89 -72.5L627.89 72.5L502.31 145L376.73 72.5L376.73 -72.5zM627.89 72.5L753.46 145L753.46 290L627.89 362.5L502.31 290L502.31 145zM502.31 290L627.89 362.5L627.89 507.5L502.31 580L376.73 507.5L376.73 362.5zM627.89 507.5L753.46 580L753.46 725L627.89 797.5L502.31 725L502.31 580zM753.46 -145L879.04 -72.5L879.04 72.5L753.46 145L627.89 72.5L627.89 -72.5zM879.04 72.5L1004.62 145L1004.62 290L879.04 362.5L753.46 290L753.46 145zM753.46 290L879.04 362.5L879.04 507.5L753.46 580L627.89 507.5L627.89 362.5zM879.04 507.5L1004.62 580L1004.62 725L879.04 797.5L753.46 725L753.46 580zM1004.62 -145L1130.2 -72.5L1130.2 72.5L1004.62 145L879.04 72.5L879.04 -72.5zM1130.2 72.5L1255.77 145L1255.77 290L1130.2 362.5L1004.62 290L1004.62 145zM1004.62 290L1130.2 362.5L1130.2 507.5L1004.62 580L879.04 507.5L879.04 362.5zM1130.2 507.5L1255.77 580L1255.77 725L1130.2 797.5L1004.62 725L1004.62 580zM1255.77 -145L1381.35 -72.5L1381.35 72.5L1255.77 145L1130.2 72.5L1130.2 -72.5zM1381.35 72.5L1506.93 145L1506.93 290L1381.35 362.5L1255.77 290L1255.77 145zM1255.77 290L1381.35 362.5L1381.35 507.5L1255.77 580L1130.2 507.5L1130.2 362.5zM1381.35 507.5L1506.93 580L1506.93 725L1381.35 797.5L1255.77 725L1255.77 580zM1506.93 -145L1632.5 -72.5L1632.5 72.5L1506.93 145L1381.35 72.5L1381.35 -72.5zM1632.5 72.5L1758.08 145L1758.08 290L1632.5 362.5L1506.93 290L1506.93 145zM1506.93 290L1632.5 362.5L1632.5 507.5L1506.93 580L1381.35 507.5L1381.35 362.5zM1632.5 507.5L1758.08 580L1758.08 725L1632.5 797.5L1506.93 725L1506.93 580z" stroke="rgba(6, 80, 156, 0.93)" stroke-width="2"></path></g><defs><mask id="SvgjsMask1533"><rect width="1583" height="638" fill="#ffffff"></rect></mask></defs></svg>