<svg xmlns="http://www.w3.org/2000/svg" version="1.1" xmlns:xlink="http://www.w3.org/1999/xlink" xmlns:svgjs="http://svgjs.dev/svgjs" width="1583" height="638" preserveAspectRatio="none" viewBox="0 0 1583 638"><g mask="url(&quot;#SvgjsMask1457&quot;)" fill="none"><rect width="1583" height="638" x="0" y="0" fill="rgba(88, 105, 230, 1)"></rect><path d="M16.53 -158.69L157.7 -77.19L157.7 85.81L16.53 167.31L-124.64 85.81L-124.64 -77.19zM16.53 330.31L157.7 411.81L157.7 574.81L16.53 656.31L-124.64 574.81L-124.64 411.81zM581.19 -158.69L722.36 -77.19L722.36 85.81L581.19 167.31L440.03 85.81L440.03 -77.19zM863.53 -158.69L1004.69 -77.19L1004.69 85.81L863.53 167.31L722.36 85.81L722.36 -77.19zM1004.69 574.81L1145.86 656.31L1145.86 819.31L1004.69 900.81L863.53 819.31L863.53 656.31zM1287.03 85.81L1428.19 167.31L1428.19 330.31L1287.03 411.81L1145.86 330.31L1145.86 167.31zM1428.19 -158.69L1569.36 -77.19L1569.36 85.81L1428.19 167.31L1287.03 85.81L1287.03 -77.19zM1569.36 85.81L1710.52 167.31L1710.52 330.31L1569.36 411.81L1428.19 330.31L1428.19 167.31zM1428.19 330.31L1569.36 411.81L1569.36 574.81L1428.19 656.31L1287.03 574.81L1287.03 411.81z" stroke="rgba(47, 95, 144, 0.93)" stroke-width="2"></path></g><defs><mask id="SvgjsMask1457"><rect width="1583" height="638" fill="#ffffff"></rect></mask></defs></svg>