<svg id="visual" viewBox="0 0 1440 600" width="1440" height="600" xmlns="http://www.w3.org/2000/svg" xmlns:xlink="http://www.w3.org/1999/xlink" version="1.1"><g stroke-width="1" stroke-linejoin="bevel"><path d="M678.1 286L681.1 235L596.3 236Z" fill="#c6b7a7" stroke="#c6b7a7"></path><path d="M596.3 236L611.3 298L678.1 286Z" fill="#f7caca" stroke="#f7caca"></path><path d="M681.1 235L615.3 157L596.3 236Z" fill="#b6b0a2" stroke="#b6b0a2"></path><path d="M533.5 144L532.5 232L596.3 236Z" fill="#bdb3a5" stroke="#bdb3a5"></path><path d="M596.3 236L519.5 297L611.3 298Z" fill="#bdb3a5" stroke="#bdb3a5"></path><path d="M530.5 367L600.3 370L611.3 298Z" fill="#e8c3bb" stroke="#e8c3bb"></path><path d="M611.3 298L685.1 386L678.1 286Z" fill="#b6b0a2" stroke="#b6b0a2"></path><path d="M768.9 289L681.1 235L678.1 286Z" fill="#cebaab" stroke="#cebaab"></path><path d="M768.9 289L753.9 218L681.1 235Z" fill="#cebaab" stroke="#cebaab"></path><path d="M681.1 235L687.1 138L615.3 157Z" fill="#f7caca" stroke="#f7caca"></path><path d="M532.5 232L519.5 297L596.3 236Z" fill="#a8a89e" stroke="#a8a89e"></path><path d="M753.9 218L687.1 138L681.1 235Z" fill="#cebaab" stroke="#cebaab"></path><path d="M746.9 373L768.9 289L678.1 286Z" fill="#f0c7c2" stroke="#f0c7c2"></path><path d="M600.3 370L685.1 386L611.3 298Z" fill="#f0c7c2" stroke="#f0c7c2"></path><path d="M519.5 297L530.5 367L611.3 298Z" fill="#e8c3bb" stroke="#e8c3bb"></path><path d="M618.3 461L686.1 446L685.1 386Z" fill="#bdb3a5" stroke="#bdb3a5"></path><path d="M539.5 83L533.5 144L615.3 157Z" fill="#cebaab" stroke="#cebaab"></path><path d="M615.3 157L533.5 144L596.3 236Z" fill="#cebaab" stroke="#cebaab"></path><path d="M532.5 232L462.7 225L519.5 297Z" fill="#cebaab" stroke="#cebaab"></path><path d="M685.1 386L746.9 373L678.1 286Z" fill="#cebaab" stroke="#cebaab"></path><path d="M836.7 220L765.9 142L753.9 218Z" fill="#e8c3bb" stroke="#e8c3bb"></path><path d="M753.9 218L765.9 142L687.1 138Z" fill="#c6b7a7" stroke="#c6b7a7"></path><path d="M765.9 142L687.1 88L687.1 138Z" fill="#a8a89e" stroke="#a8a89e"></path><path d="M687.1 138L687.1 88L615.3 157Z" fill="#f7caca" stroke="#f7caca"></path><path d="M533.5 144L462.7 225L532.5 232Z" fill="#cebaab" stroke="#cebaab"></path><path d="M519.5 297L464.7 369L530.5 367Z" fill="#b6b0a2" stroke="#b6b0a2"></path><path d="M462.7 225L450.7 303L519.5 297Z" fill="#c6b7a7" stroke="#c6b7a7"></path><path d="M618.3 461L685.1 386L600.3 370Z" fill="#f0c7c2" stroke="#f0c7c2"></path><path d="M685.1 386L748.9 440L746.9 373Z" fill="#f7caca" stroke="#f7caca"></path><path d="M687.1 88L600.3 63L615.3 157Z" fill="#c6b7a7" stroke="#c6b7a7"></path><path d="M533.5 144L447.7 147L462.7 225Z" fill="#cebaab" stroke="#cebaab"></path><path d="M846.7 313L836.7 220L768.9 289Z" fill="#c6b7a7" stroke="#c6b7a7"></path><path d="M768.9 289L836.7 220L753.9 218Z" fill="#afaca0" stroke="#afaca0"></path><path d="M600.3 63L539.5 83L615.3 157Z" fill="#dfc0b5" stroke="#dfc0b5"></path><path d="M530.5 444L600.3 370L530.5 367Z" fill="#e8c3bb" stroke="#e8c3bb"></path><path d="M530.5 444L618.3 461L600.3 370Z" fill="#c6b7a7" stroke="#c6b7a7"></path><path d="M450.7 303L464.7 369L519.5 297Z" fill="#a8a89e" stroke="#a8a89e"></path><path d="M678.1 512L748.9 440L686.1 446Z" fill="#f7caca" stroke="#f7caca"></path><path d="M686.1 446L748.9 440L685.1 386Z" fill="#c6b7a7" stroke="#c6b7a7"></path><path d="M844.7 368L846.7 313L768.9 289Z" fill="#dfc0b5" stroke="#dfc0b5"></path><path d="M844.7 368L768.9 289L746.9 373Z" fill="#d7bdaf" stroke="#d7bdaf"></path><path d="M464.7 369L530.5 444L530.5 367Z" fill="#e8c3bb" stroke="#e8c3bb"></path><path d="M464.7 63L447.7 147L533.5 144Z" fill="#cebaab" stroke="#cebaab"></path><path d="M462.7 225L390.9 286L450.7 303Z" fill="#dfc0b5" stroke="#dfc0b5"></path><path d="M836.7 220L825.7 137L765.9 142Z" fill="#afaca0" stroke="#afaca0"></path><path d="M765.9 142L756.9 64L687.1 88Z" fill="#afaca0" stroke="#afaca0"></path><path d="M835.7 79L756.9 64L765.9 142Z" fill="#e8c3bb" stroke="#e8c3bb"></path><path d="M677.1 0L607.3 0L600.3 63Z" fill="#c6b7a7" stroke="#c6b7a7"></path><path d="M824.7 440L844.7 368L746.9 373Z" fill="#b6b0a2" stroke="#b6b0a2"></path><path d="M375.9 237L390.9 286L462.7 225Z" fill="#f0c7c2" stroke="#f0c7c2"></path><path d="M450.7 303L364.9 374L464.7 369Z" fill="#c6b7a7" stroke="#c6b7a7"></path><path d="M464.7 369L442.7 461L530.5 444Z" fill="#dfc0b5" stroke="#dfc0b5"></path><path d="M609.3 514L678.1 512L618.3 461Z" fill="#f0c7c2" stroke="#f0c7c2"></path><path d="M618.3 461L678.1 512L686.1 446Z" fill="#cebaab" stroke="#cebaab"></path><path d="M748.9 440L824.7 440L746.9 373Z" fill="#bdb3a5" stroke="#bdb3a5"></path><path d="M530.5 444L609.3 514L618.3 461Z" fill="#cebaab" stroke="#cebaab"></path><path d="M766.9 534L824.7 440L748.9 440Z" fill="#afaca0" stroke="#afaca0"></path><path d="M677.1 0L600.3 63L687.1 88Z" fill="#dfc0b5" stroke="#dfc0b5"></path><path d="M600.3 63L527.5 0L539.5 83Z" fill="#afaca0" stroke="#afaca0"></path><path d="M539.5 83L464.7 63L533.5 144Z" fill="#a8a89e" stroke="#a8a89e"></path><path d="M756.9 64L677.1 0L687.1 88Z" fill="#d7bdaf" stroke="#d7bdaf"></path><path d="M527.5 0L464.7 63L539.5 83Z" fill="#f0c7c2" stroke="#f0c7c2"></path><path d="M378.9 158L375.9 237L462.7 225Z" fill="#dfc0b5" stroke="#dfc0b5"></path><path d="M378.9 158L462.7 225L447.7 147Z" fill="#f7caca" stroke="#f7caca"></path><path d="M895.5 142L835.7 79L825.7 137Z" fill="#a8a89e" stroke="#a8a89e"></path><path d="M825.7 137L835.7 79L765.9 142Z" fill="#f7caca" stroke="#f7caca"></path><path d="M756.9 64L750.9 0L677.1 0Z" fill="#a8a89e" stroke="#a8a89e"></path><path d="M895.5 142L825.7 137L836.7 220Z" fill="#e8c3bb" stroke="#e8c3bb"></path><path d="M900.5 363L913.5 295L846.7 313Z" fill="#d7bdaf" stroke="#d7bdaf"></path><path d="M846.7 313L913.5 295L836.7 220Z" fill="#dfc0b5" stroke="#dfc0b5"></path><path d="M900.5 363L846.7 313L844.7 368Z" fill="#afaca0" stroke="#afaca0"></path><path d="M380.9 88L378.9 158L447.7 147Z" fill="#f0c7c2" stroke="#f0c7c2"></path><path d="M913.5 295L916.5 230L836.7 220Z" fill="#bdb3a5" stroke="#bdb3a5"></path><path d="M607.3 0L527.5 0L600.3 63Z" fill="#bdb3a5" stroke="#bdb3a5"></path><path d="M836.7 0L750.9 0L756.9 64Z" fill="#a8a89e" stroke="#a8a89e"></path><path d="M916.5 230L895.5 142L836.7 220Z" fill="#b6b0a2" stroke="#b6b0a2"></path><path d="M918.5 437L900.5 363L844.7 368Z" fill="#dfc0b5" stroke="#dfc0b5"></path><path d="M364.9 374L450.7 303L390.9 286Z" fill="#c6b7a7" stroke="#c6b7a7"></path><path d="M387.9 454L442.7 461L464.7 369Z" fill="#f0c7c2" stroke="#f0c7c2"></path><path d="M530.5 444L518.5 519L609.3 514Z" fill="#cebaab" stroke="#cebaab"></path><path d="M442.7 461L518.5 519L530.5 444Z" fill="#b6b0a2" stroke="#b6b0a2"></path><path d="M685.1 600L766.9 534L678.1 512Z" fill="#d7bdaf" stroke="#d7bdaf"></path><path d="M309.2 302L364.9 374L390.9 286Z" fill="#f7caca" stroke="#f7caca"></path><path d="M309.2 302L390.9 286L375.9 237Z" fill="#dfc0b5" stroke="#dfc0b5"></path><path d="M610.3 600L678.1 512L609.3 514Z" fill="#dfc0b5" stroke="#dfc0b5"></path><path d="M678.1 512L766.9 534L748.9 440Z" fill="#bdb3a5" stroke="#bdb3a5"></path><path d="M824.7 440L918.5 437L844.7 368Z" fill="#cebaab" stroke="#cebaab"></path><path d="M445.7 0L380.9 88L464.7 63Z" fill="#b6b0a2" stroke="#b6b0a2"></path><path d="M464.7 63L380.9 88L447.7 147Z" fill="#bdb3a5" stroke="#bdb3a5"></path><path d="M378.9 158L309.2 223L375.9 237Z" fill="#d7bdaf" stroke="#d7bdaf"></path><path d="M364.9 374L387.9 454L464.7 369Z" fill="#f7caca" stroke="#f7caca"></path><path d="M442.7 461L461.7 527L518.5 519Z" fill="#d7bdaf" stroke="#d7bdaf"></path><path d="M379.9 513L461.7 527L442.7 461Z" fill="#e8c3bb" stroke="#e8c3bb"></path><path d="M528.5 600L610.3 600L609.3 514Z" fill="#afaca0" stroke="#afaca0"></path><path d="M527.5 0L445.7 0L464.7 63Z" fill="#bdb3a5" stroke="#bdb3a5"></path><path d="M766.9 534L819.7 528L824.7 440Z" fill="#f7caca" stroke="#f7caca"></path><path d="M921.5 0L836.7 0L835.7 79Z" fill="#b6b0a2" stroke="#b6b0a2"></path><path d="M835.7 79L836.7 0L756.9 64Z" fill="#f7caca" stroke="#f7caca"></path><path d="M305.2 141L309.2 223L378.9 158Z" fill="#b6b0a2" stroke="#b6b0a2"></path><path d="M364.9 374L314.2 387L387.9 454Z" fill="#d7bdaf" stroke="#d7bdaf"></path><path d="M915.5 520L918.5 437L824.7 440Z" fill="#bdb3a5" stroke="#bdb3a5"></path><path d="M988.3 305L980.3 222L913.5 295Z" fill="#b6b0a2" stroke="#b6b0a2"></path><path d="M913.5 295L980.3 222L916.5 230Z" fill="#b6b0a2" stroke="#b6b0a2"></path><path d="M984.3 155L920.5 82L895.5 142Z" fill="#bdb3a5" stroke="#bdb3a5"></path><path d="M895.5 142L920.5 82L835.7 79Z" fill="#f7caca" stroke="#f7caca"></path><path d="M984.3 155L895.5 142L916.5 230Z" fill="#c6b7a7" stroke="#c6b7a7"></path><path d="M309.2 223L309.2 302L375.9 237Z" fill="#c6b7a7" stroke="#c6b7a7"></path><path d="M528.5 600L609.3 514L518.5 519Z" fill="#a8a89e" stroke="#a8a89e"></path><path d="M766.9 534L846.7 600L819.7 528Z" fill="#b6b0a2" stroke="#b6b0a2"></path><path d="M988.3 305L913.5 295L900.5 363Z" fill="#bdb3a5" stroke="#bdb3a5"></path><path d="M610.3 600L685.1 600L678.1 512Z" fill="#cebaab" stroke="#cebaab"></path><path d="M309.2 302L314.2 387L364.9 374Z" fill="#cebaab" stroke="#cebaab"></path><path d="M447.7 600L528.5 600L461.7 527Z" fill="#dfc0b5" stroke="#dfc0b5"></path><path d="M996.3 362L988.3 305L900.5 363Z" fill="#b6b0a2" stroke="#b6b0a2"></path><path d="M380.9 88L305.2 141L378.9 158Z" fill="#a8a89e" stroke="#a8a89e"></path><path d="M309.2 223L236.4 231L309.2 302Z" fill="#bdb3a5" stroke="#bdb3a5"></path><path d="M300.2 81L305.2 141L380.9 88Z" fill="#f7caca" stroke="#f7caca"></path><path d="M685.1 600L745.9 600L766.9 534Z" fill="#afaca0" stroke="#afaca0"></path><path d="M819.7 528L915.5 520L824.7 440Z" fill="#afaca0" stroke="#afaca0"></path><path d="M379.9 513L442.7 461L387.9 454Z" fill="#b6b0a2" stroke="#b6b0a2"></path><path d="M461.7 527L528.5 600L518.5 519Z" fill="#afaca0" stroke="#afaca0"></path><path d="M1056.1 219L984.3 155L980.3 222Z" fill="#dfc0b5" stroke="#dfc0b5"></path><path d="M980.3 222L984.3 155L916.5 230Z" fill="#c6b7a7" stroke="#c6b7a7"></path><path d="M308.2 456L379.9 513L387.9 454Z" fill="#dfc0b5" stroke="#dfc0b5"></path><path d="M445.7 0L377.9 0L380.9 88Z" fill="#b6b0a2" stroke="#b6b0a2"></path><path d="M918.5 437L996.3 362L900.5 363Z" fill="#bdb3a5" stroke="#bdb3a5"></path><path d="M988.3 305L1056.1 219L980.3 222Z" fill="#b6b0a2" stroke="#b6b0a2"></path><path d="M846.7 600L915.5 520L819.7 528Z" fill="#a8a89e" stroke="#a8a89e"></path><path d="M918.5 437L985.3 441L996.3 362Z" fill="#f7caca" stroke="#f7caca"></path><path d="M377.9 0L300.2 81L380.9 88Z" fill="#a8a89e" stroke="#a8a89e"></path><path d="M305.2 141L236.4 231L309.2 223Z" fill="#b6b0a2" stroke="#b6b0a2"></path><path d="M981.3 75L921.5 0L920.5 82Z" fill="#e8c3bb" stroke="#e8c3bb"></path><path d="M920.5 82L921.5 0L835.7 79Z" fill="#cebaab" stroke="#cebaab"></path><path d="M314.2 387L308.2 456L387.9 454Z" fill="#dfc0b5" stroke="#dfc0b5"></path><path d="M221.4 436L308.2 456L314.2 387Z" fill="#e8c3bb" stroke="#e8c3bb"></path><path d="M226.4 381L314.2 387L309.2 302Z" fill="#d7bdaf" stroke="#d7bdaf"></path><path d="M984.3 155L981.3 75L920.5 82Z" fill="#a8a89e" stroke="#a8a89e"></path><path d="M1068.1 77L981.3 75L984.3 155Z" fill="#c6b7a7" stroke="#c6b7a7"></path><path d="M976.3 511L985.3 441L918.5 437Z" fill="#b6b0a2" stroke="#b6b0a2"></path><path d="M379.9 513L447.7 600L461.7 527Z" fill="#dfc0b5" stroke="#dfc0b5"></path><path d="M364.9 600L447.7 600L379.9 513Z" fill="#f0c7c2" stroke="#f0c7c2"></path><path d="M745.9 600L846.7 600L766.9 534Z" fill="#e8c3bb" stroke="#e8c3bb"></path><path d="M915.5 520L976.3 511L918.5 437Z" fill="#b6b0a2" stroke="#b6b0a2"></path><path d="M218.4 153L236.4 231L305.2 141Z" fill="#f7caca" stroke="#f7caca"></path><path d="M236.4 231L223.4 303L309.2 302Z" fill="#f7caca" stroke="#f7caca"></path><path d="M1066.1 293L988.3 305L996.3 362Z" fill="#bdb3a5" stroke="#bdb3a5"></path><path d="M1066.1 293L1056.1 219L988.3 305Z" fill="#dfc0b5" stroke="#dfc0b5"></path><path d="M993.3 600L976.3 511L915.5 520Z" fill="#f0c7c2" stroke="#f0c7c2"></path><path d="M1067.1 379L1066.1 293L996.3 362Z" fill="#b6b0a2" stroke="#b6b0a2"></path><path d="M221.4 436L296.2 511L308.2 456Z" fill="#c6b7a7" stroke="#c6b7a7"></path><path d="M308.2 456L296.2 511L379.9 513Z" fill="#b6b0a2" stroke="#b6b0a2"></path><path d="M1067.1 379L996.3 362L985.3 441Z" fill="#f0c7c2" stroke="#f0c7c2"></path><path d="M846.7 600L898.5 600L915.5 520Z" fill="#a8a89e" stroke="#a8a89e"></path><path d="M223.4 303L226.4 381L309.2 302Z" fill="#afaca0" stroke="#afaca0"></path><path d="M233.4 73L218.4 153L305.2 141Z" fill="#f7caca" stroke="#f7caca"></path><path d="M147.6 236L159.6 302L223.4 303Z" fill="#e8c3bb" stroke="#e8c3bb"></path><path d="M233.4 73L305.2 141L300.2 81Z" fill="#cebaab" stroke="#cebaab"></path><path d="M377.9 0L289.2 0L300.2 81Z" fill="#bdb3a5" stroke="#bdb3a5"></path><path d="M1068.1 77L989.3 0L981.3 75Z" fill="#bdb3a5" stroke="#bdb3a5"></path><path d="M981.3 75L989.3 0L921.5 0Z" fill="#a8a89e" stroke="#a8a89e"></path><path d="M296.2 511L364.9 600L379.9 513Z" fill="#cebaab" stroke="#cebaab"></path><path d="M1132.8 212L1070.1 161L1056.1 219Z" fill="#bdb3a5" stroke="#bdb3a5"></path><path d="M1056.1 219L1070.1 161L984.3 155Z" fill="#a8a89e" stroke="#a8a89e"></path><path d="M1071.1 437L1067.1 379L985.3 441Z" fill="#bdb3a5" stroke="#bdb3a5"></path><path d="M1066.1 293L1132.8 212L1056.1 219Z" fill="#cebaab" stroke="#cebaab"></path><path d="M289.2 0L233.4 73L300.2 81Z" fill="#bdb3a5" stroke="#bdb3a5"></path><path d="M226.4 381L221.4 436L314.2 387Z" fill="#bdb3a5" stroke="#bdb3a5"></path><path d="M296.2 511L294.2 600L364.9 600Z" fill="#f7caca" stroke="#f7caca"></path><path d="M148.6 377L221.4 436L226.4 381Z" fill="#b6b0a2" stroke="#b6b0a2"></path><path d="M159.6 302L226.4 381L223.4 303Z" fill="#dfc0b5" stroke="#dfc0b5"></path><path d="M1070.1 161L1068.1 77L984.3 155Z" fill="#c6b7a7" stroke="#c6b7a7"></path><path d="M1050.1 523L985.3 441L976.3 511Z" fill="#b6b0a2" stroke="#b6b0a2"></path><path d="M1050.1 523L1071.1 437L985.3 441Z" fill="#e8c3bb" stroke="#e8c3bb"></path><path d="M1067.1 379L1129.8 307L1066.1 293Z" fill="#dfc0b5" stroke="#dfc0b5"></path><path d="M147.6 236L236.4 231L218.4 153Z" fill="#dfc0b5" stroke="#dfc0b5"></path><path d="M147.6 236L223.4 303L236.4 231Z" fill="#e8c3bb" stroke="#e8c3bb"></path><path d="M216.4 527L296.2 511L221.4 436Z" fill="#afaca0" stroke="#afaca0"></path><path d="M216.4 527L294.2 600L296.2 511Z" fill="#afaca0" stroke="#afaca0"></path><path d="M993.3 600L1050.1 523L976.3 511Z" fill="#f0c7c2" stroke="#f0c7c2"></path><path d="M145.6 155L147.6 236L218.4 153Z" fill="#a8a89e" stroke="#a8a89e"></path><path d="M898.5 600L993.3 600L915.5 520Z" fill="#bdb3a5" stroke="#bdb3a5"></path><path d="M1144.8 382L1067.1 379L1071.1 437Z" fill="#f7caca" stroke="#f7caca"></path><path d="M1144.8 382L1129.8 307L1067.1 379Z" fill="#a8a89e" stroke="#a8a89e"></path><path d="M1070.1 161L1122.8 86L1068.1 77Z" fill="#bdb3a5" stroke="#bdb3a5"></path><path d="M1126.8 0L1062.1 0L1068.1 77Z" fill="#afaca0" stroke="#afaca0"></path><path d="M1068.1 77L1062.1 0L989.3 0Z" fill="#bdb3a5" stroke="#bdb3a5"></path><path d="M1129.8 307L1132.8 212L1066.1 293Z" fill="#bdb3a5" stroke="#bdb3a5"></path><path d="M289.2 0L214.4 0L233.4 73Z" fill="#e8c3bb" stroke="#e8c3bb"></path><path d="M154.6 80L145.6 155L218.4 153Z" fill="#b6b0a2" stroke="#b6b0a2"></path><path d="M151.6 449L216.4 527L221.4 436Z" fill="#bdb3a5" stroke="#bdb3a5"></path><path d="M154.6 80L218.4 153L233.4 73Z" fill="#afaca0" stroke="#afaca0"></path><path d="M79.8 292L148.6 377L159.6 302Z" fill="#cebaab" stroke="#cebaab"></path><path d="M159.6 302L148.6 377L226.4 381Z" fill="#d7bdaf" stroke="#d7bdaf"></path><path d="M79.8 292L159.6 302L147.6 236Z" fill="#afaca0" stroke="#afaca0"></path><path d="M1144.8 159L1122.8 86L1070.1 161Z" fill="#cebaab" stroke="#cebaab"></path><path d="M1200.6 227L1144.8 159L1132.8 212Z" fill="#d7bdaf" stroke="#d7bdaf"></path><path d="M1132.8 212L1144.8 159L1070.1 161Z" fill="#b6b0a2" stroke="#b6b0a2"></path><path d="M214.4 0L154.6 80L233.4 73Z" fill="#f0c7c2" stroke="#f0c7c2"></path><path d="M1145.8 462L1144.8 382L1071.1 437Z" fill="#f0c7c2" stroke="#f0c7c2"></path><path d="M1129.8 307L1200.6 227L1132.8 212Z" fill="#bdb3a5" stroke="#bdb3a5"></path><path d="M148.6 377L151.6 449L221.4 436Z" fill="#f7caca" stroke="#f7caca"></path><path d="M147.6 600L225.4 600L216.4 527Z" fill="#bdb3a5" stroke="#bdb3a5"></path><path d="M216.4 527L225.4 600L294.2 600Z" fill="#b6b0a2" stroke="#b6b0a2"></path><path d="M214.4 0L157.6 0L154.6 80Z" fill="#dfc0b5" stroke="#dfc0b5"></path><path d="M76.8 155L147.6 236L145.6 155Z" fill="#cebaab" stroke="#cebaab"></path><path d="M1141.8 513L1071.1 437L1050.1 523Z" fill="#b6b0a2" stroke="#b6b0a2"></path><path d="M1141.8 513L1145.8 462L1071.1 437Z" fill="#f0c7c2" stroke="#f0c7c2"></path><path d="M1225.6 301L1200.6 227L1129.8 307Z" fill="#a8a89e" stroke="#a8a89e"></path><path d="M151.6 449L158.6 521L216.4 527Z" fill="#c6b7a7" stroke="#c6b7a7"></path><path d="M1122.8 86L1126.8 0L1068.1 77Z" fill="#c6b7a7" stroke="#c6b7a7"></path><path d="M1201.6 61L1126.8 0L1122.8 86Z" fill="#bdb3a5" stroke="#bdb3a5"></path><path d="M993.3 600L1074.1 600L1050.1 523Z" fill="#cebaab" stroke="#cebaab"></path><path d="M148.6 377L83.8 382L151.6 449Z" fill="#b6b0a2" stroke="#b6b0a2"></path><path d="M151.6 449L81.8 455L158.6 521Z" fill="#e8c3bb" stroke="#e8c3bb"></path><path d="M65.8 235L79.8 292L147.6 236Z" fill="#cebaab" stroke="#cebaab"></path><path d="M76.8 155L145.6 155L78.8 85Z" fill="#cebaab" stroke="#cebaab"></path><path d="M1214.6 374L1129.8 307L1144.8 382Z" fill="#a8a89e" stroke="#a8a89e"></path><path d="M1144.8 159L1209.6 154L1122.8 86Z" fill="#cebaab" stroke="#cebaab"></path><path d="M1074.1 600L1141.8 513L1050.1 523Z" fill="#d7bdaf" stroke="#d7bdaf"></path><path d="M1212.6 455L1214.6 374L1144.8 382Z" fill="#cebaab" stroke="#cebaab"></path><path d="M79.8 292L83.8 382L148.6 377Z" fill="#c6b7a7" stroke="#c6b7a7"></path><path d="M78.8 85L145.6 155L154.6 80Z" fill="#b6b0a2" stroke="#b6b0a2"></path><path d="M76.8 155L65.8 235L147.6 236Z" fill="#b6b0a2" stroke="#b6b0a2"></path><path d="M79.8 292L0 388L83.8 382Z" fill="#a8a89e" stroke="#a8a89e"></path><path d="M1200.6 227L1209.6 154L1144.8 159Z" fill="#c6b7a7" stroke="#c6b7a7"></path><path d="M84.8 0L78.8 85L154.6 80Z" fill="#a8a89e" stroke="#a8a89e"></path><path d="M0 217L0 287L65.8 235Z" fill="#f0c7c2" stroke="#f0c7c2"></path><path d="M1212.6 455L1144.8 382L1145.8 462Z" fill="#a8a89e" stroke="#a8a89e"></path><path d="M1200.6 227L1278.4 229L1209.6 154Z" fill="#e8c3bb" stroke="#e8c3bb"></path><path d="M1214.6 374L1225.6 301L1129.8 307Z" fill="#cebaab" stroke="#cebaab"></path><path d="M0 446L81.8 455L83.8 382Z" fill="#bdb3a5" stroke="#bdb3a5"></path><path d="M83.8 382L81.8 455L151.6 449Z" fill="#e8c3bb" stroke="#e8c3bb"></path><path d="M158.6 521L147.6 600L216.4 527Z" fill="#bdb3a5" stroke="#bdb3a5"></path><path d="M1220.6 0L1201.6 61L1280.4 83Z" fill="#c6b7a7" stroke="#c6b7a7"></path><path d="M1209.6 154L1201.6 61L1122.8 86Z" fill="#c6b7a7" stroke="#c6b7a7"></path><path d="M76.8 530L147.6 600L158.6 521Z" fill="#c6b7a7" stroke="#c6b7a7"></path><path d="M1294.4 306L1278.4 229L1225.6 301Z" fill="#a8a89e" stroke="#a8a89e"></path><path d="M1203.6 530L1212.6 455L1145.8 462Z" fill="#e8c3bb" stroke="#e8c3bb"></path><path d="M1203.6 530L1145.8 462L1141.8 513Z" fill="#e8c3bb" stroke="#e8c3bb"></path><path d="M157.6 0L84.8 0L154.6 80Z" fill="#d7bdaf" stroke="#d7bdaf"></path><path d="M0 217L65.8 235L76.8 155Z" fill="#f0c7c2" stroke="#f0c7c2"></path><path d="M1074.1 600L1146.8 600L1141.8 513Z" fill="#a8a89e" stroke="#a8a89e"></path><path d="M81.8 455L76.8 530L158.6 521Z" fill="#dfc0b5" stroke="#dfc0b5"></path><path d="M0 529L76.8 530L81.8 455Z" fill="#a8a89e" stroke="#a8a89e"></path><path d="M1146.8 600L1203.6 530L1141.8 513Z" fill="#a8a89e" stroke="#a8a89e"></path><path d="M1201.6 61L1220.6 0L1126.8 0Z" fill="#cebaab" stroke="#cebaab"></path><path d="M1280.4 83L1201.6 61L1209.6 154Z" fill="#f7caca" stroke="#f7caca"></path><path d="M0 217L76.8 155L0 156Z" fill="#b6b0a2" stroke="#b6b0a2"></path><path d="M65.8 235L0 287L79.8 292Z" fill="#dfc0b5" stroke="#dfc0b5"></path><path d="M1294.4 306L1225.6 301L1288.4 367Z" fill="#c6b7a7" stroke="#c6b7a7"></path><path d="M1225.6 301L1278.4 229L1200.6 227Z" fill="#f0c7c2" stroke="#f0c7c2"></path><path d="M1225.6 301L1214.6 374L1288.4 367Z" fill="#afaca0" stroke="#afaca0"></path><path d="M0 156L76.8 155L78.8 85Z" fill="#d7bdaf" stroke="#d7bdaf"></path><path d="M0 71L0 156L78.8 85Z" fill="#b6b0a2" stroke="#b6b0a2"></path><path d="M0 287L0 388L79.8 292Z" fill="#d7bdaf" stroke="#d7bdaf"></path><path d="M0 600L77.8 600L76.8 530Z" fill="#a8a89e" stroke="#a8a89e"></path><path d="M76.8 530L77.8 600L147.6 600Z" fill="#bdb3a5" stroke="#bdb3a5"></path><path d="M1288.4 367L1214.6 374L1275.4 443Z" fill="#e8c3bb" stroke="#e8c3bb"></path><path d="M1275.4 443L1214.6 374L1212.6 455Z" fill="#cebaab" stroke="#cebaab"></path><path d="M1298.4 523L1275.4 443L1212.6 455Z" fill="#dfc0b5" stroke="#dfc0b5"></path><path d="M1298.4 523L1212.6 455L1203.6 530Z" fill="#afaca0" stroke="#afaca0"></path><path d="M1300.4 158L1209.6 154L1278.4 229Z" fill="#dfc0b5" stroke="#dfc0b5"></path><path d="M1300.4 158L1280.4 83L1209.6 154Z" fill="#f7caca" stroke="#f7caca"></path><path d="M84.8 0L0 71L78.8 85Z" fill="#b6b0a2" stroke="#b6b0a2"></path><path d="M0 388L0 446L83.8 382Z" fill="#b6b0a2" stroke="#b6b0a2"></path><path d="M1362.2 213L1300.4 158L1278.4 229Z" fill="#e8c3bb" stroke="#e8c3bb"></path><path d="M1146.8 600L1214.6 600L1203.6 530Z" fill="#cebaab" stroke="#cebaab"></path><path d="M84.8 0L0 0L0 71Z" fill="#f7caca" stroke="#f7caca"></path><path d="M0 446L0 529L81.8 455Z" fill="#e8c3bb" stroke="#e8c3bb"></path><path d="M1356.2 88L1296.4 0L1280.4 83Z" fill="#a8a89e" stroke="#a8a89e"></path><path d="M1280.4 83L1296.4 0L1220.6 0Z" fill="#f0c7c2" stroke="#f0c7c2"></path><path d="M1289.4 600L1298.4 523L1203.6 530Z" fill="#e8c3bb" stroke="#e8c3bb"></path><path d="M1355.2 451L1357.2 366L1288.4 367Z" fill="#e8c3bb" stroke="#e8c3bb"></path><path d="M1371.2 301L1362.2 213L1294.4 306Z" fill="#cebaab" stroke="#cebaab"></path><path d="M1294.4 306L1362.2 213L1278.4 229Z" fill="#bdb3a5" stroke="#bdb3a5"></path><path d="M1357.2 366L1294.4 306L1288.4 367Z" fill="#cebaab" stroke="#cebaab"></path><path d="M1300.4 158L1356.2 88L1280.4 83Z" fill="#a8a89e" stroke="#a8a89e"></path><path d="M0 529L0 600L76.8 530Z" fill="#cebaab" stroke="#cebaab"></path><path d="M1355.2 451L1288.4 367L1275.4 443Z" fill="#c6b7a7" stroke="#c6b7a7"></path><path d="M1362.2 213L1362.2 158L1300.4 158Z" fill="#afaca0" stroke="#afaca0"></path><path d="M1357.2 366L1371.2 301L1294.4 306Z" fill="#e8c3bb" stroke="#e8c3bb"></path><path d="M1362.2 213L1440 216L1362.2 158Z" fill="#b6b0a2" stroke="#b6b0a2"></path><path d="M1214.6 600L1289.4 600L1203.6 530Z" fill="#bdb3a5" stroke="#bdb3a5"></path><path d="M1298.4 523L1355.2 451L1275.4 443Z" fill="#b6b0a2" stroke="#b6b0a2"></path><path d="M1362.2 158L1356.2 88L1300.4 158Z" fill="#bdb3a5" stroke="#bdb3a5"></path><path d="M1358.2 530L1355.2 451L1298.4 523Z" fill="#cebaab" stroke="#cebaab"></path><path d="M1440 380L1440 290L1371.2 301Z" fill="#f7caca" stroke="#f7caca"></path><path d="M1440 136L1356.2 88L1362.2 158Z" fill="#a8a89e" stroke="#a8a89e"></path><path d="M1440 79L1362.2 0L1356.2 88Z" fill="#bdb3a5" stroke="#bdb3a5"></path><path d="M1356.2 88L1362.2 0L1296.4 0Z" fill="#e8c3bb" stroke="#e8c3bb"></path><path d="M1440 380L1371.2 301L1357.2 366Z" fill="#a8a89e" stroke="#a8a89e"></path><path d="M1352.2 600L1358.2 530L1298.4 523Z" fill="#f0c7c2" stroke="#f0c7c2"></path><path d="M1289.4 600L1352.2 600L1298.4 523Z" fill="#afaca0" stroke="#afaca0"></path><path d="M1440 380L1355.2 451L1440 444Z" fill="#d7bdaf" stroke="#d7bdaf"></path><path d="M1440 380L1357.2 366L1355.2 451Z" fill="#cebaab" stroke="#cebaab"></path><path d="M1371.2 301L1440 290L1362.2 213Z" fill="#cebaab" stroke="#cebaab"></path><path d="M1440 290L1440 216L1362.2 213Z" fill="#f0c7c2" stroke="#f0c7c2"></path><path d="M1440 444L1355.2 451L1440 526Z" fill="#cebaab" stroke="#cebaab"></path><path d="M1440 216L1440 136L1362.2 158Z" fill="#d7bdaf" stroke="#d7bdaf"></path><path d="M1440 136L1440 79L1356.2 88Z" fill="#f0c7c2" stroke="#f0c7c2"></path><path d="M1440 526L1355.2 451L1358.2 530Z" fill="#b6b0a2" stroke="#b6b0a2"></path><path d="M1440 79L1440 0L1362.2 0Z" fill="#dfc0b5" stroke="#dfc0b5"></path><path d="M1440 600L1440 526L1358.2 530Z" fill="#e8c3bb" stroke="#e8c3bb"></path><path d="M1352.2 600L1440 600L1358.2 530Z" fill="#b6b0a2" stroke="#b6b0a2"></path></g></svg>