<svg xmlns="http://www.w3.org/2000/svg" version="1.1" xmlns:xlink="http://www.w3.org/1999/xlink" xmlns:svgjs="http://svgjs.dev/svgjs" width="1440" height="560" preserveAspectRatio="none" viewBox="0 0 1440 560"><g clip-path="url(&quot;#SvgjsClipPath1066&quot;)" fill="none"><rect width="1440" height="560" x="0" y="0" fill="#0e2a47"></rect><circle r="93.335" cx="43.86" cy="15.84" stroke="#365aa3" stroke-opacity="0.25" stroke-width="2"></circle><circle r="93.335" cx="431.71" cy="379.09" stroke="#365aa3" stroke-opacity="0.25" stroke-width="2"></circle><circle r="93.335" cx="699.21" cy="697.18" stroke="#365aa3" stroke-opacity="0.25" stroke-width="2"></circle><circle r="104.245" cx="1409.57" cy="446.95" stroke="#365aa3" stroke-opacity="0.25" stroke-width="2"></circle><circle r="90.22" cx="1033.31" cy="417.59" stroke="#365aa3" stroke-opacity="0.25" stroke-width="2"></circle><circle r="112.125" cx="109.2" cy="241.87" stroke="#365aa3" stroke-opacity="0.25" stroke-width="2"></circle><circle r="155.225" cx="311.78" cy="176.62" stroke="#365aa3" stroke-opacity="0.25" stroke-width="2"></circle><circle r="153.725" cx="223.88" cy="558.22" stroke="#365aa3" stroke-opacity="0.25" stroke-width="2"></circle><circle r="71.845" cx="745.51" cy="539.68" stroke="#365aa3" stroke-opacity="0.25" stroke-width="2"></circle><circle r="81.855" cx="177.97" cy="191.41" stroke="#365aa3" stroke-opacity="0.25" stroke-width="2"></circle><circle r="103" cx="22.34" cy="102.91" stroke="#365aa3" stroke-opacity="0.25" stroke-width="2"></circle><circle r="56.875" cx="415.26" cy="71.81" stroke="#365aa3" stroke-opacity="0.25" stroke-width="2"></circle><circle r="74.795" cx="1175.08" cy="151.21" stroke="#365aa3" stroke-opacity="0.25" stroke-width="2"></circle><circle r="177.645" cx="1251.15" cy="398.3" stroke="#365aa3" stroke-opacity="0.25" stroke-width="2"></circle><circle r="108.53" cx="958.5" cy="293.09" stroke="#365aa3" stroke-opacity="0.25" stroke-width="2"></circle><circle r="111.915" cx="529.12" cy="283.78" stroke="#365aa3" stroke-opacity="0.25" stroke-width="2"></circle><circle r="81.105" cx="279.56" cy="374.46" stroke="#365aa3" stroke-opacity="0.25" stroke-width="2"></circle><circle r="77.74" cx="184.09" cy="0.79" stroke="#365aa3" stroke-opacity="0.25" stroke-width="2"></circle><circle r="76.42" cx="902.93" cy="144.14" stroke="#365aa3" stroke-opacity="0.25" stroke-width="2"></circle><circle r="115.82" cx="1032.5" cy="179.21" stroke="#365aa3" stroke-opacity="0.25" stroke-width="2"></circle></g><defs><clipPath id="SvgjsClipPath1066"><rect width="1440" height="560" x="0" y="0"></rect></clipPath></defs></svg>