<svg xmlns="http://www.w3.org/2000/svg" version="1.1" xmlns:xlink="http://www.w3.org/1999/xlink" xmlns:svgjs="http://svgjs.dev/svgjs" width="1520" height="560" preserveAspectRatio="none" viewBox="0 0 1520 560"><g clip-path="url(&quot;#SvgjsClipPath1131&quot;)" fill="none"><rect width="1520" height="560" x="0" y="0" fill="rgba(88, 105, 230, 1)"></rect><circle r="93.335" cx="4.38" cy="-52.51" stroke="#545a67" stroke-opacity="0.37" stroke-width="2"></circle><circle r="93.335" cx="287.19" cy="383.34" stroke="#545a67" stroke-opacity="0.37" stroke-width="2"></circle><circle r="93.335" cx="665.82" cy="693.49" stroke="#545a67" stroke-opacity="0.37" stroke-width="2"></circle><circle r="93.335" cx="1194.32" cy="1136.3" stroke="#545a67" stroke-opacity="0.37" stroke-width="2"></circle><circle r="148.7" cx="1075.95" cy="92.46" stroke="#545a67" stroke-opacity="0.37" stroke-width="2"></circle><circle r="89.465" cx="1429.67" cy="197" stroke="#545a67" stroke-opacity="0.37" stroke-width="2"></circle><circle r="64.72" cx="501.88" cy="276.52" stroke="#545a67" stroke-opacity="0.37" stroke-width="2"></circle><circle r="60.945" cx="27.99" cy="397.64" stroke="#545a67" stroke-opacity="0.37" stroke-width="2"></circle><circle r="69.695" cx="33.41" cy="326.37" stroke="#545a67" stroke-opacity="0.37" stroke-width="2"></circle><circle r="121.4" cx="241.97" cy="469.21" stroke="#545a67" stroke-opacity="0.37" stroke-width="2"></circle><circle r="172.72" cx="1396.63" cy="209.49" stroke="#545a67" stroke-opacity="0.37" stroke-width="2"></circle><circle r="121.185" cx="111.09" cy="439.97" stroke="#545a67" stroke-opacity="0.37" stroke-width="2"></circle><circle r="134.915" cx="1127.98" cy="547.32" stroke="#545a67" stroke-opacity="0.37" stroke-width="2"></circle><circle r="99.17" cx="1206.24" cy="227.22" stroke="#545a67" stroke-opacity="0.37" stroke-width="2"></circle><circle r="92.715" cx="893.12" cy="439.18" stroke="#545a67" stroke-opacity="0.37" stroke-width="2"></circle><circle r="157.62" cx="463.22" cy="64.73" stroke="#545a67" stroke-opacity="0.37" stroke-width="2"></circle><circle r="88.215" cx="1404.08" cy="526.48" stroke="#545a67" stroke-opacity="0.37" stroke-width="2"></circle><circle r="162.135" cx="257.02" cy="513.17" stroke="#545a67" stroke-opacity="0.37" stroke-width="2"></circle></g><defs><clipPath id="SvgjsClipPath1131"><rect width="1520" height="560" x="0" y="0"></rect></clipPath></defs></svg>