<svg xmlns="http://www.w3.org/2000/svg" version="1.1" xmlns:xlink="http://www.w3.org/1999/xlink" xmlns:svgjs="http://svgjs.dev/svgjs" width="1520" height="560" preserveAspectRatio="none" viewBox="0 0 1520 560"><g clip-path="url(&quot;#SvgjsClipPath1081&quot;)" fill="none"><rect width="1520" height="560" x="0" y="0" fill="rgba(88, 105, 230, 1)"></rect><circle r="93.335" cx="-77.89" cy="-65.19" stroke="#000000" stroke-opacity="0.25" stroke-width="2"></circle><circle r="93.335" cx="359.69" cy="284.65" stroke="#000000" stroke-opacity="0.25" stroke-width="2"></circle><circle r="93.335" cx="780.75" cy="781.41" stroke="#000000" stroke-opacity="0.25" stroke-width="2"></circle><circle r="93.335" cx="1060.27" cy="1065.59" stroke="#000000" stroke-opacity="0.25" stroke-width="2"></circle><circle r="146.94" cx="982.9" cy="278.96" stroke="#000000" stroke-opacity="0.25" stroke-width="2"></circle><circle r="115.35" cx="124.08" cy="341.98" stroke="#000000" stroke-opacity="0.25" stroke-width="2"></circle><circle r="89.02" cx="1510.61" cy="246.72" stroke="#000000" stroke-opacity="0.25" stroke-width="2"></circle><circle r="73.095" cx="701.35" cy="541.97" stroke="#000000" stroke-opacity="0.25" stroke-width="2"></circle><circle r="51.72" cx="1493.97" cy="422.71" stroke="#000000" stroke-opacity="0.25" stroke-width="2"></circle><circle r="52.805" cx="131.7" cy="413.64" stroke="#000000" stroke-opacity="0.25" stroke-width="2"></circle><circle r="85.01" cx="635.41" cy="101.6" stroke="#000000" stroke-opacity="0.25" stroke-width="2"></circle><circle r="71.475" cx="122.14" cy="554.67" stroke="#000000" stroke-opacity="0.25" stroke-width="2"></circle><circle r="88.98" cx="273.99" cy="5.05" stroke="#000000" stroke-opacity="0.25" stroke-width="2"></circle><circle r="167.43" cx="766.63" cy="540.29" stroke="#000000" stroke-opacity="0.25" stroke-width="2"></circle><circle r="73.44" cx="946.34" cy="84.69" stroke="#000000" stroke-opacity="0.25" stroke-width="2"></circle><circle r="160.35" cx="810.51" cy="16.7" stroke="#000000" stroke-opacity="0.25" stroke-width="2"></circle><circle r="184.085" cx="1124.12" cy="396.64" stroke="#000000" stroke-opacity="0.25" stroke-width="2"></circle><circle r="109.57" cx="480.81" cy="452.39" stroke="#000000" stroke-opacity="0.25" stroke-width="2"></circle><circle r="120.34" cx="1042.67" cy="188.66" stroke="#000000" stroke-opacity="0.25" stroke-width="2"></circle></g><defs><clipPath id="SvgjsClipPath1081"><rect width="1520" height="560" x="0" y="0"></rect></clipPath></defs></svg>