<svg xmlns="http://www.w3.org/2000/svg" version="1.1" xmlns:xlink="http://www.w3.org/1999/xlink" xmlns:svgjs="http://svgjs.dev/svgjs" width="1706" height="560" preserveAspectRatio="none" viewBox="0 0 1706 560"><g mask="url(&quot;#SvgjsMask1477&quot;)" fill="none"><rect width="1706" height="560" x="0" y="0" fill="rgba(88, 105, 230, 1)"></rect><path d="M1706 0L1190.33 0L1706 188.27z" fill="rgba(255, 255, 255, .1)"></path><path d="M1190.33 0L1706 188.27L1706 269.26L1069.3 0z" fill="rgba(255, 255, 255, .075)"></path><path d="M1069.3000000000002 0L1706 269.26L1706 382.89L918.7800000000002 0z" fill="rgba(255, 255, 255, .05)"></path><path d="M918.7800000000001 0L1706 382.89L1706 401.57L824.3900000000001 0z" fill="rgba(255, 255, 255, .025)"></path><path d="M0 560L571.37 560L0 510z" fill="rgba(0, 0, 0, .1)"></path><path d="M0 510L571.37 560L768.01 560L0 289.13z" fill="rgba(0, 0, 0, .075)"></path><path d="M0 289.13L768.01 560L1327.7 560L0 242.57z" fill="rgba(0, 0, 0, .05)"></path><path d="M0 242.57L1327.7 560L1352.21 560L0 130.45z" fill="rgba(0, 0, 0, .025)"></path></g><defs><mask id="SvgjsMask1477"><rect width="1706" height="560" fill="#ffffff"></rect></mask></defs></svg>