<svg xmlns="http://www.w3.org/2000/svg" version="1.1" xmlns:xlink="http://www.w3.org/1999/xlink" xmlns:svgjs="http://svgjs.dev/svgjs" width="2002" height="560" preserveAspectRatio="none" viewBox="0 0 2002 560"><g mask="url(&quot;#SvgjsMask1775&quot;)" fill="none"><rect width="2002" height="560" x="0" y="0" fill="rgba(88, 105, 230, 1)"></rect><path d="M2002 0L1145.2 0L2002 127.84z" fill="rgba(255, 255, 255, .1)"></path><path d="M1145.2 0L2002 127.84L2002 312.20000000000005L590.2800000000001 0z" fill="rgba(255, 255, 255, .075)"></path><path d="M590.2800000000002 0L2002 312.20000000000005L2002 336.41L563.7100000000002 0z" fill="rgba(255, 255, 255, .05)"></path><path d="M563.7100000000003 0L2002 336.41L2002 436.47L463.9400000000003 0z" fill="rgba(255, 255, 255, .025)"></path><path d="M0 560L725.36 560L0 439.7z" fill="rgba(0, 0, 0, .1)"></path><path d="M0 439.7L725.36 560L773.35 560L0 274.65999999999997z" fill="rgba(0, 0, 0, .075)"></path><path d="M0 274.66L773.35 560L1267.8 560L0 137.72000000000003z" fill="rgba(0, 0, 0, .05)"></path><path d="M0 137.72000000000003L1267.8 560L1314.81 560L0 70.61000000000003z" fill="rgba(0, 0, 0, .025)"></path></g><defs><mask id="SvgjsMask1775"><rect width="2002" height="560" fill="#ffffff"></rect></mask></defs></svg>