<svg xmlns="http://www.w3.org/2000/svg" version="1.1" xmlns:xlink="http://www.w3.org/1999/xlink" xmlns:svgjs="http://svgjs.dev/svgjs" width="1590" height="634" preserveAspectRatio="none" viewBox="0 0 1590 634"><g mask="url(&quot;#SvgjsMask2614&quot;)" fill="none"><rect width="1590" height="634" x="0" y="0" fill="rgba(7, 58, 111, 1)"></rect><path d="M39 634L673 0L1013.5 0L379.5 634z" fill="url(&quot;#SvgjsLinearGradient2615&quot;)"></path><path d="M418.8 634L1052.8 0L1427.8 0L793.8 634z" fill="url(&quot;#SvgjsLinearGradient2615&quot;)"></path><path d="M702.6 634L1336.6 0L1675.6 0L1041.6 634z" fill="url(&quot;#SvgjsLinearGradient2615&quot;)"></path><path d="M1524 634L890 0L678.5 0L1312.5 634z" fill="url(&quot;#SvgjsLinearGradient2616&quot;)"></path><path d="M1181.2 634L547.2 0L410.70000000000005 0L1044.7 634z" fill="url(&quot;#SvgjsLinearGradient2616&quot;)"></path><path d="M853.4 634L219.39999999999998 0L-62.60000000000002 0L571.4 634z" fill="url(&quot;#SvgjsLinearGradient2616&quot;)"></path><path d="M1032.3546854913486 634L1590 76.35468549134862L1590 634z" fill="url(&quot;#SvgjsLinearGradient2615&quot;)"></path><path d="M0 634L557.6453145086514 634L 0 76.35468549134862z" fill="url(&quot;#SvgjsLinearGradient2616&quot;)"></path></g><defs><mask id="SvgjsMask2614"><rect width="1590" height="634" fill="#ffffff"></rect></mask><linearGradient x1="0%" y1="100%" x2="100%" y2="0%" id="SvgjsLinearGradient2615"><stop stop-color="rgba(15, 70, 185, 0.2)" offset="0"></stop><stop stop-opacity="0" stop-color="rgba(15, 70, 185, 0.2)" offset="0.66"></stop></linearGradient><linearGradient x1="100%" y1="100%" x2="0%" y2="0%" id="SvgjsLinearGradient2616"><stop stop-color="rgba(15, 70, 185, 0.2)" offset="0"></stop><stop stop-opacity="0" stop-color="rgba(15, 70, 185, 0.2)" offset="0.66"></stop></linearGradient></defs></svg>