<svg xmlns="http://www.w3.org/2000/svg" version="1.1" xmlns:xlink="http://www.w3.org/1999/xlink" xmlns:svgjs="http://svgjs.dev/svgjs" width="1590" height="634" preserveAspectRatio="none" viewBox="0 0 1590 634"><g mask="url(&quot;#SvgjsMask1060&quot;)" fill="none"><rect width="1590" height="634" x="0" y="0" fill="rgba(88, 105, 230, 1)"></rect><path d="M69 634L703 0L955 0L321 634z" fill="url(&quot;#SvgjsLinearGradient1061&quot;)"></path><path d="M374.8 634L1008.8 0L1229.3 0L595.3 634z" fill="url(&quot;#SvgjsLinearGradient1061&quot;)"></path><path d="M702.6 634L1336.6 0L1536.1 0L902.1 634z" fill="url(&quot;#SvgjsLinearGradient1061&quot;)"></path><path d="M1548 634L914 0L542 0L1176 634z" fill="url(&quot;#SvgjsLinearGradient1062&quot;)"></path><path d="M1228.2 634L594.2 0L387.20000000000005 0L1021.2 634z" fill="url(&quot;#SvgjsLinearGradient1062&quot;)"></path><path d="M867.4 634L233.39999999999998 0L-224.10000000000002 0L409.9 634z" fill="url(&quot;#SvgjsLinearGradient1062&quot;)"></path><path d="M981.4893142697941 634L1590 25.489314269794136L1590 634z" fill="url(&quot;#SvgjsLinearGradient1061&quot;)"></path><path d="M0 634L608.5106857302059 634L 0 25.489314269794136z" fill="url(&quot;#SvgjsLinearGradient1062&quot;)"></path></g><defs><mask id="SvgjsMask1060"><rect width="1590" height="634" fill="#ffffff"></rect></mask><linearGradient x1="0%" y1="100%" x2="100%" y2="0%" id="SvgjsLinearGradient1061"><stop stop-color="rgba(1, 6, 15, 0.2)" offset="0"></stop><stop stop-opacity="0" stop-color="rgba(1, 6, 15, 0.2)" offset="0.66"></stop></linearGradient><linearGradient x1="100%" y1="100%" x2="0%" y2="0%" id="SvgjsLinearGradient1062"><stop stop-color="rgba(1, 6, 15, 0.2)" offset="0"></stop><stop stop-opacity="0" stop-color="rgba(1, 6, 15, 0.2)" offset="0.66"></stop></linearGradient></defs></svg>