<svg xmlns="http://www.w3.org/2000/svg" version="1.1" xmlns:xlink="http://www.w3.org/1999/xlink" xmlns:svgjs="http://svgjs.dev/svgjs" width="1440" height="560" preserveAspectRatio="none" viewBox="0 0 1440 560"><g mask="url(&quot;#SvgjsMask1349&quot;)" fill="none"><rect width="1440" height="560" x="0" y="0" fill="url(&quot;#SvgjsLinearGradient1350&quot;)"></rect><path d="M1440 0L763.39 0L1440 247.43z" fill="rgba(255, 255, 255, .1)"></path><path d="M763.39 0L1440 247.43L1440 334.04L461.96999999999997 0z" fill="rgba(255, 255, 255, .075)"></path><path d="M461.97 0L1440 334.04L1440 361.8L198.76000000000005 0z" fill="rgba(255, 255, 255, .05)"></path><path d="M198.76 0L1440 361.8L1440 456.28000000000003L68.54999999999998 0z" fill="rgba(255, 255, 255, .025)"></path><path d="M0 560L370.54 560L0 317.3z" fill="rgba(0, 0, 0, .1)"></path><path d="M0 317.3L370.54 560L947.78 560L0 210.70000000000002z" fill="rgba(0, 0, 0, .075)"></path><path d="M0 210.70000000000005L947.78 560L1182.21 560L0 200.64000000000004z" fill="rgba(0, 0, 0, .05)"></path><path d="M0 200.64000000000004L1182.21 560L1197.79 560L0 132.80000000000004z" fill="rgba(0, 0, 0, .025)"></path></g><defs><mask id="SvgjsMask1349"><rect width="1440" height="560" fill="#ffffff"></rect></mask><linearGradient x1="84.72%" y1="-39.29%" x2="15.28%" y2="139.29%" gradientUnits="userSpaceOnUse" id="SvgjsLinearGradient1350"><stop stop-color="#0e2a47" offset="0"></stop><stop stop-color="rgba(166, 193, 228, 1)" offset="0.4"></stop><stop stop-color="rgba(166, 193, 228, 1)" offset="0.4"></stop><stop stop-color="rgba(166, 193, 228, 1)" offset="0.4"></stop><stop stop-color="rgba(166, 193, 228, 1)" offset="1"></stop></linearGradient></defs></svg>