<svg xmlns="http://www.w3.org/2000/svg" version="1.1" xmlns:xlink="http://www.w3.org/1999/xlink" xmlns:svgjs="http://svgjs.dev/svgjs" width="1545" height="1000" preserveAspectRatio="none" viewBox="0 0 1545 1000"><g mask="url(&quot;#SvgjsMask1525&quot;)" fill="none"><rect width="1545" height="1000" x="0" y="0" fill="rgba(88, 105, 230, 1)"></rect><path d="M0 0L1.99 0L0 28.24z" fill="rgba(255, 255, 255, .1)"></path><path d="M0 28.24L1.99 0L390.57 0L0 144.28z" fill="rgba(255, 255, 255, .075)"></path><path d="M0 144.28L390.57 0L563.45 0L0 412.78999999999996z" fill="rgba(255, 255, 255, .05)"></path><path d="M0 412.78999999999996L563.45 0L1232.8600000000001 0L0 596.4z" fill="rgba(255, 255, 255, .025)"></path><path d="M1545 1000L1275.66 1000L1545 953.33z" fill="rgba(0, 0, 0, .1)"></path><path d="M1545 953.33L1275.66 1000L697.4100000000001 1000L1545 495.14000000000004z" fill="rgba(0, 0, 0, .075)"></path><path d="M1545 495.14L697.4100000000001 1000L460.55000000000007 1000L1545 187.13z" fill="rgba(0, 0, 0, .05)"></path><path d="M1545 187.13L460.5500000000002 1000L249.24000000000018 1000L1545 110.61z" fill="rgba(0, 0, 0, .025)"></path></g><defs><mask id="SvgjsMask1525"><rect width="1545" height="1000" fill="#ffffff"></rect></mask></defs></svg>