<svg xmlns="http://www.w3.org/2000/svg" version="1.1" xmlns:xlink="http://www.w3.org/1999/xlink" xmlns:svgjs="http://svgjs.dev/svgjs" width="1583" height="616" preserveAspectRatio="none" viewBox="0 0 1583 616"><g mask="url(&quot;#SvgjsMask1479&quot;)" fill="none"><rect width="1583" height="616" x="0" y="0" fill="rgba(88, 105, 230, 1)"></rect><path d="M0,310.17C74.974,325.206,153.126,378.671,221.977,345.403C290.185,312.446,301.215,220.777,330.011,150.711C357.687,83.371,389.01,17.159,386.788,-55.612C384.401,-133.804,363.411,-211.712,317.024,-274.703C268.514,-340.578,202.611,-401.709,121.934,-415.27C43.412,-428.469,-27.953,-375.991,-101.307,-345.021C-166.18,-317.632,-233.546,-295.426,-282.293,-244.609C-332.597,-192.169,-371.632,-126.816,-379.878,-54.618C-388.015,16.623,-366.363,89.342,-327.306,149.475C-291.16,205.127,-230.858,237.286,-171.29,266.532C-117.307,293.035,-58.964,298.345,0,310.17" fill="#4a5de4"></path><path d="M1583 1055.383C1677.545 1053.975 1787.129 1107.547 1860.829 1048.311 1935.646 988.177 1896.498 864.54 1931.599 775.2 1963.938 692.889 2063.571 636.006 2057.482 547.78 2051.396 459.598 1964.001 402.53 1901.56 339.966 1843.255 281.546 1786.408 215.978 1706.338 195.94799999999998 1627.516 176.23000000000002 1545.144 200.52499999999998 1470.269 232.075 1401.204 261.177 1347.119 312.452 1297.193 368.347 1246.5810000000001 425.01 1187.0140000000001 482.37 1179.201 557.943 1171.464 632.782 1238.473 692.134 1256.157 765.264 1279.719 862.705 1224.826 990.119 1299.799 1056.6689999999999 1371.859 1120.632 1486.658 1056.818 1583 1055.383" fill="#6675e8"></path></g><defs><mask id="SvgjsMask1479"><rect width="1583" height="616" fill="#ffffff"></rect></mask></defs></svg>