<svg xmlns="http://www.w3.org/2000/svg" version="1.1" xmlns:xlink="http://www.w3.org/1999/xlink" xmlns:svgjs="http://svgjs.dev/svgjs" width="1566" height="603" preserveAspectRatio="none" viewBox="0 0 1566 603"><g mask="url(&quot;#SvgjsMask1220&quot;)" fill="none"><rect width="1566" height="603" x="0" y="0" fill="rgba(88, 105, 230, 1)"></rect><path d="M -235.22456331494482,522.5 C -78.62,427.9 234.58,52.3 547.7754366850552,49.5 C 860.98,46.7 1017.58,473.1 1330.7754366850552,508.5 C 1643.98,543.9 2066.73,246.9 2113.775436685055,226.5 C 2160.82,206.1 1675.56,370.5 1566,406.5" stroke="rgba(39, 40, 41, 0.58)" stroke-width="2"></path><path d="M -1409.104090540083,565.5 C -1252.5,456.9 -939.3,17.1 -626.104090540083,22.5 C -312.9,27.9 -156.3,541.1 156.895909459917,592.5 C 470.1,643.9 658.08,299.9 939.895909459917,279.5 C 1221.72,259.1 1440.78,448.3 1566,490.5" stroke="rgba(39, 40, 41, 0.58)" stroke-width="2"></path><path d="M -713.9382383173261,524.5 C -557.34,468.5 -244.14,238.7 69.0617616826739,244.5 C 382.26,250.3 538.86,590.5 852.0617616826739,553.5 C 1165.26,516.5 1492.27,59.1 1635.061761682674,59.5 C 1777.85,59.9 1579.81,456.3 1566,555.5" stroke="rgba(39, 40, 41, 0.58)" stroke-width="2"></path><path d="M -1292.074930475561,429.5 C -1135.47,349.7 -822.27,14.3 -509.074930475561,30.5 C -195.87,46.7 -39.27,490.1 273.925069524439,510.5 C 587.13,530.9 798.51,172.5 1056.925069524439,132.5 C 1315.34,92.5 1464.19,274.9 1566,310.5" stroke="rgba(39, 40, 41, 0.58)" stroke-width="2"></path><path d="M -1468.9240980212116,113.5 C -1312.32,156.1 -999.12,341.3 -685.9240980212118,326.5 C -372.72,311.7 -216.12,19.7 97.07590197878824,39.5 C 410.28,59.3 586.29,417.3 880.0759019787882,425.5 C 1173.86,433.7 1428.82,149.5 1566,80.5" stroke="rgba(39, 40, 41, 0.58)" stroke-width="2"></path></g><defs><mask id="SvgjsMask1220"><rect width="1566" height="603" fill="#ffffff"></rect></mask></defs></svg>