<svg xmlns="http://www.w3.org/2000/svg" version="1.1" xmlns:xlink="http://www.w3.org/1999/xlink" xmlns:svgjs="http://svgjs.dev/svgjs" width="1440" height="560" preserveAspectRatio="none" viewBox="0 0 1440 560"><g mask="url(&quot;#SvgjsMask1080&quot;)" fill="none"><path d="M329.6722943684784 520.588943508438L234.91439167780115 487.96118103462277 202.28662920398594 582.7190837253 297.0445318946632 615.3468461991152z" fill="rgba(28, 83, 142, 0.4)" class="triangle-float3"></path><path d="M1146.3836609617115 148.13314473306352L1146.2386426360968 300.30002660959394 1262.5786733592254 235.8116945334706z" fill="rgba(28, 83, 142, 0.4)" class="triangle-float3"></path><path d="M1037.061,748.71C1087.467,750.386,1130.73,716.902,1156.588,673.601C1183.207,629.025,1195.863,572.824,1168.406,528.76C1142.05,486.463,1086.891,482.626,1037.061,481.78C985.047,480.896,923.781,479.12,897.752,524.162C871.714,569.22,903.119,621.863,930.554,666.084C955.943,707.007,988.929,747.109,1037.061,748.71" fill="rgba(28, 83, 142, 0.4)" class="triangle-float1"></path><path d="M1473.2653266568248 302.86293907766037L1443.1874333537676 204.4825830088696 1344.807077284977 234.5604763119267 1374.884970588034 332.94083238071744z" fill="rgba(28, 83, 142, 0.4)" class="triangle-float1"></path><path d="M1027.9648350676023 451.6906830946681L982.9197954073419 345.5712198424191 876.800332155093 390.61625950267944 921.8453718153532 496.7357227549284z" fill="rgba(28, 83, 142, 0.4)" class="triangle-float1"></path><path d="M94.441,268.849C149.084,265.999,191.977,229.003,221.022,182.631C252.503,132.369,277.263,72.356,250.739,19.311C221.935,-38.293,158.7,-74.825,94.441,-70.512C35.749,-66.573,-0.293,-13.067,-29.301,38.107C-57.75,88.296,-84.542,146.303,-57.277,197.144C-28.943,249.978,34.57,271.971,94.441,268.849" fill="rgba(28, 83, 142, 0.4)" class="triangle-float2"></path><path d="M646.7274491084655 77.0651760281214L549.1530064944731 25.18392460114994 594.846197681494 174.63961864211382z" fill="rgba(28, 83, 142, 0.4)" class="triangle-float3"></path><path d="M273.7761547296688 508.852269806571L267.33781093803987 600.9248756166295 408.6658915489421 564.5460883990436z" fill="rgba(28, 83, 142, 0.4)" class="triangle-float3"></path><path d="M1308.4532690468584 316.2313028858701L1280.5910535367923 419.8195186864772 1371.5763854028503 397.1343276042889z" fill="rgba(28, 83, 142, 0.4)" class="triangle-float3"></path><path d="M1395.828,286.087C1435.305,286.572,1481.462,288.271,1501.682,254.362C1522.162,220.017,1500.968,178.71,1480.252,144.506C1460.541,111.962,1433.85,81.005,1395.828,79.588C1355.727,78.094,1320.122,103.204,1299.756,137.781C1279.056,172.925,1272.208,217.586,1294.383,251.818C1315.182,283.925,1357.576,285.617,1395.828,286.087" fill="rgba(28, 83, 142, 0.4)" class="triangle-float3"></path><path d="M653.0173640892934 55.12446255905999L531.245465072679-1.658706500464426 596.234195029769 176.8963615756744z" fill="rgba(28, 83, 142, 0.4)" class="triangle-float1"></path><path d="M1088.793,360.53C1106.214,360.571,1120.093,348.246,1129.386,333.511C1139.52,317.442,1148.085,297.776,1138.835,281.182C1129.429,264.306,1108.059,259.246,1088.793,260.683C1071.991,261.937,1058.373,273.059,1050.204,287.795C1042.313,302.03,1040.899,318.943,1048.527,333.321C1056.664,348.658,1071.431,360.489,1088.793,360.53" fill="rgba(28, 83, 142, 0.4)" class="triangle-float2"></path><path d="M141.94772480309456 406.1081070255146L74.40397942939167 420.46497330446437 129.71115153466775 514.6021582255438z" fill="rgba(28, 83, 142, 0.4)" class="triangle-float3"></path><path d="M989.5187188466833 360.1553941462175L920.8651342829982 281.17847942167805 841.8882195584588 349.8320639853632 910.541804122144 428.80897870990265z" fill="rgba(28, 83, 142, 0.4)" class="triangle-float3"></path><path d="M515.5860776062088 206.28813573742025L563.5761315493482 81.2697709960821 438.5577668080101 33.27971705294266 390.5677128648707 158.29808179428082z" fill="rgba(28, 83, 142, 0.4)" class="triangle-float3"></path><path d="M254.89237702233174 215.43891141106118L174.17578741072833 254.80702260253685 213.543898602204 335.52361221414026 294.2604882138074 296.15550102266457z" fill="rgba(28, 83, 142, 0.4)" class="triangle-float1"></path><path d="M1316.9620866575433 61.71424838879258L1178.0709648812424 13.890199920434668 1269.1380381891854 200.60537016509352z" fill="rgba(28, 83, 142, 0.4)" class="triangle-float2"></path><path d="M985.2320203969273 290.7398405416411L1055.337129119766 412.16545071973763 1176.7627392978625 342.06034199689896 1106.6576305750239 220.63473181880244z" fill="rgba(28, 83, 142, 0.4)" class="triangle-float1"></path></g><defs><mask id="SvgjsMask1080"><rect width="1440" height="560" fill="#ffffff"></rect></mask><style>
                @keyframes float1 {
                    0%{transform: translate(0, 0)}
                    50%{transform: translate(-10px, 0)}
                    100%{transform: translate(0, 0)}
                }

                .triangle-float1 {
                    animation: float1 5s infinite;
                }

                @keyframes float2 {
                    0%{transform: translate(0, 0)}
                    50%{transform: translate(-5px, -5px)}
                    100%{transform: translate(0, 0)}
                }

                .triangle-float2 {
                    animation: float2 4s infinite;
                }

                @keyframes float3 {
                    0%{transform: translate(0, 0)}
                    50%{transform: translate(0, -10px)}
                    100%{transform: translate(0, 0)}
                }

                .triangle-float3 {
                    animation: float3 6s infinite;
                }
            </style></defs></svg>