<svg xmlns="http://www.w3.org/2000/svg" version="1.1" xmlns:xlink="http://www.w3.org/1999/xlink" xmlns:svgjs="http://svgjs.dev/svgjs" width="1440" height="560" preserveAspectRatio="none" viewBox="0 0 1440 560"><g mask="url(&quot;#SvgjsMask1358&quot;)" fill="none"><rect width="1440" height="560" x="0" y="0" fill="url(&quot;#SvgjsLinearGradient1359&quot;)"></rect><path d="M1218.15 436.52 a155.3 155.3 0 1 0 310.6 0 a155.3 155.3 0 1 0 -310.6 0z" fill="rgba(28, 83, 142, 0.4)" class="triangle-float3"></path><path d="M818.513,239.689C870.557,239.631,903.148,189.872,928.923,144.659C954.356,100.044,976.3,49.001,953.431,3.019C928.448,-47.213,874.612,-76.796,818.513,-77.333C761.473,-77.879,704.503,-50.656,679.044,0.391C655.553,47.492,681.171,99.432,707.675,144.906C733.911,189.921,766.41,239.747,818.513,239.689" fill="rgba(28, 83, 142, 0.4)" class="triangle-float1"></path><path d="M83.227,640.475C134.428,638.952,178.362,609.168,205.628,565.804C235.093,518.944,252.213,461.426,226.695,412.305C199.469,359.897,142.113,325.683,83.227,330.192C29.941,334.272,-0.612,385.029,-26.644,431.702C-51.724,476.668,-76.449,527.919,-52.471,573.482C-27.291,621.328,29.184,642.083,83.227,640.475" fill="rgba(28, 83, 142, 0.4)" class="triangle-float3"></path><path d="M194.68440622792747 212.97551690750205L222.54905985575223 293.9003470760996 330.00397829473616 211.64095155006365z" fill="rgba(28, 83, 142, 0.4)" class="triangle-float1"></path><path d="M959.1808032055654 387.2721281743061L1093.605339489059 436.19865813653473 1142.5318694512875 301.77412185304127 1008.1073331677941 252.8475918908126z" fill="rgba(28, 83, 142, 0.4)" class="triangle-float2"></path><path d="M1354.964,643.696C1385.175,643.171,1406.207,616.703,1420.279,589.964C1433.209,565.395,1436.512,537.174,1424.09,512.344C1410.172,484.524,1386.063,460.095,1354.964,459.405C1322.922,458.694,1295.143,480.742,1280.312,509.154C1266.538,535.542,1271.149,566.278,1285.591,592.307C1300.556,619.277,1324.125,644.232,1354.964,643.696" fill="rgba(28, 83, 142, 0.4)" class="triangle-float1"></path><path d="M818.9587630630178 387.08121307206875L976.1890282515557 409.1784857821442 841.0560357730933 229.85094788353092z" fill="rgba(28, 83, 142, 0.4)" class="triangle-float2"></path><path d="M345.77 355.15 a101.8 101.8 0 1 0 203.6 0 a101.8 101.8 0 1 0 -203.6 0z" fill="rgba(28, 83, 142, 0.4)" class="triangle-float1"></path></g><defs><mask id="SvgjsMask1358"><rect width="1440" height="560" fill="#ffffff"></rect></mask><linearGradient x1="84.72%" y1="-39.29%" x2="15.28%" y2="139.29%" gradientUnits="userSpaceOnUse" id="SvgjsLinearGradient1359"><stop stop-color="#0e2a47" offset="0"></stop><stop stop-color="rgba(80, 107, 141, 0.94)" offset="1"></stop></linearGradient><style>
                @keyframes float1 {
                    0%{transform: translate(0, 0)}
                    50%{transform: translate(-10px, 0)}
                    100%{transform: translate(0, 0)}
                }

                .triangle-float1 {
                    animation: float1 5s infinite;
                }

                @keyframes float2 {
                    0%{transform: translate(0, 0)}
                    50%{transform: translate(-5px, -5px)}
                    100%{transform: translate(0, 0)}
                }

                .triangle-float2 {
                    animation: float2 4s infinite;
                }

                @keyframes float3 {
                    0%{transform: translate(0, 0)}
                    50%{transform: translate(0, -10px)}
                    100%{transform: translate(0, 0)}
                }

                .triangle-float3 {
                    animation: float3 6s infinite;
                }
            </style></defs></svg>