<svg xmlns="http://www.w3.org/2000/svg" version="1.1" xmlns:xlink="http://www.w3.org/1999/xlink" xmlns:svgjs="http://svgjs.dev/svgjs" width="1520" height="560" preserveAspectRatio="none" viewBox="0 0 1520 560"><g clip-path="url(&quot;#SvgjsClipPath1003&quot;)" fill="none"><rect width="1520" height="560" x="0" y="0" fill="rgba(88, 105, 230, 1)"></rect><circle r="93.335" cx="91.36" cy="34.43" stroke="#000000" stroke-opacity="0.25" stroke-width="2"></circle><circle r="93.335" cx="364.01" cy="401.26" stroke="#000000" stroke-opacity="0.25" stroke-width="2"></circle><circle r="93.335" cx="779.06" cy="744.73" stroke="#000000" stroke-opacity="0.25" stroke-width="2"></circle><circle r="93.335" cx="1173.94" cy="1149.1" stroke="#000000" stroke-opacity="0.25" stroke-width="2"></circle><circle r="169.57" cx="713.37" cy="230.75" stroke="#000000" stroke-opacity="0.25" stroke-width="2"></circle><circle r="152.35" cx="496.29" cy="448.97" stroke="#000000" stroke-opacity="0.25" stroke-width="2"></circle><circle r="128.075" cx="434.37" cy="212.74" stroke="#000000" stroke-opacity="0.25" stroke-width="2"></circle><circle r="70.015" cx="665.67" cy="515.91" stroke="#000000" stroke-opacity="0.25" stroke-width="2"></circle><circle r="91.28" cx="894.69" cy="251.55" stroke="#000000" stroke-opacity="0.25" stroke-width="2"></circle><circle r="171.565" cx="1186.89" cy="160.43" stroke="#000000" stroke-opacity="0.25" stroke-width="2"></circle><circle r="53.255" cx="131.3" cy="85.21" stroke="#000000" stroke-opacity="0.25" stroke-width="2"></circle><circle r="67.33" cx="893.88" cy="159.63" stroke="#000000" stroke-opacity="0.25" stroke-width="2"></circle><circle r="58.88" cx="655.18" cy="103.51" stroke="#000000" stroke-opacity="0.25" stroke-width="2"></circle><circle r="57.83" cx="440.89" cy="370.61" stroke="#000000" stroke-opacity="0.25" stroke-width="2"></circle><circle r="120.805" cx="1365.55" cy="457.89" stroke="#000000" stroke-opacity="0.25" stroke-width="2"></circle><circle r="139.94" cx="1183.21" cy="431.79" stroke="#000000" stroke-opacity="0.25" stroke-width="2"></circle><circle r="92.17" cx="1509.1" cy="178.48" stroke="#000000" stroke-opacity="0.25" stroke-width="2"></circle><circle r="139.28" cx="77.7" cy="203.71" stroke="#000000" stroke-opacity="0.25" stroke-width="2"></circle><circle r="102.065" cx="1048.84" cy="407.82" stroke="#000000" stroke-opacity="0.25" stroke-width="2"></circle><circle r="62.595" cx="1409.31" cy="59.5" stroke="#000000" stroke-opacity="0.25" stroke-width="2"></circle><circle r="153.405" cx="324.45" cy="556.05" stroke="#000000" stroke-opacity="0.25" stroke-width="2"></circle></g><defs><clipPath id="SvgjsClipPath1003"><rect width="1520" height="560" x="0" y="0"></rect></clipPath></defs></svg>