<svg id="visual" viewBox="0 0 1440 590" width="1440" height="590" xmlns="http://www.w3.org/2000/svg" xmlns:xlink="http://www.w3.org/1999/xlink" version="1.1"><rect width="1440" height="590" fill="#CCCCCC"></rect><g><g transform="translate(1129 62)"><path d="M0 -86L55.3 -65.9L84.7 -14.9L74.5 43L29.4 80.8L-29.4 80.8L-74.5 43L-84.7 -14.9L-55.3 -65.9Z" fill="none" stroke="#888277" stroke-width="2"></path></g><g transform="translate(184 488)"><path d="M0 -45L28.9 -34.5L44.3 -7.8L39 22.5L15.4 42.3L-15.4 42.3L-39 22.5L-44.3 -7.8L-28.9 -34.5Z" fill="none" stroke="#888277" stroke-width="2"></path></g><g transform="translate(213 313)"><path d="M0 -57L36.6 -43.7L56.1 -9.9L49.4 28.5L19.5 53.6L-19.5 53.6L-49.4 28.5L-56.1 -9.9L-36.6 -43.7Z" fill="none" stroke="#888277" stroke-width="2"></path></g><g transform="translate(553 366)"><path d="M0 -50L32.1 -38.3L49.2 -8.7L43.3 25L17.1 47L-17.1 47L-43.3 25L-49.2 -8.7L-32.1 -38.3Z" fill="none" stroke="#888277" stroke-width="2"></path></g><g transform="translate(1330 536)"><path d="M0 -70L45 -53.6L68.9 -12.2L60.6 35L23.9 65.8L-23.9 65.8L-60.6 35L-68.9 -12.2L-45 -53.6Z" fill="none" stroke="#888277" stroke-width="2"></path></g><g transform="translate(1342 36)"><path d="M0 -74L47.6 -56.7L72.9 -12.8L64.1 37L25.3 69.5L-25.3 69.5L-64.1 37L-72.9 -12.8L-47.6 -56.7Z" fill="none" stroke="#888277" stroke-width="2"></path></g><g transform="translate(14 577)"><path d="M0 -19L12.2 -14.6L18.7 -3.3L16.5 9.5L6.5 17.9L-6.5 17.9L-16.5 9.5L-18.7 -3.3L-12.2 -14.6Z" fill="none" stroke="#888277" stroke-width="2"></path></g><g transform="translate(653 169)"><path d="M0 -18L11.6 -13.8L17.7 -3.1L15.6 9L6.2 16.9L-6.2 16.9L-15.6 9L-17.7 -3.1L-11.6 -13.8Z" fill="none" stroke="#888277" stroke-width="2"></path></g><g transform="translate(971 331)"><path d="M0 -46L29.6 -35.2L45.3 -8L39.8 23L15.7 43.2L-15.7 43.2L-39.8 23L-45.3 -8L-29.6 -35.2Z" fill="none" stroke="#888277" stroke-width="2"></path></g><g transform="translate(880 576)"><path d="M0 -61L39.2 -46.7L60.1 -10.6L52.8 30.5L20.9 57.3L-20.9 57.3L-52.8 30.5L-60.1 -10.6L-39.2 -46.7Z" fill="none" stroke="#888277" stroke-width="2"></path></g><g transform="translate(1386 339)"><path d="M0 -48L30.9 -36.8L47.3 -8.3L41.6 24L16.4 45.1L-16.4 45.1L-41.6 24L-47.3 -8.3L-30.9 -36.8Z" fill="none" stroke="#888277" stroke-width="2"></path></g><g transform="translate(28 285)"><path d="M0 -83L53.4 -63.6L81.7 -14.4L71.9 41.5L28.4 78L-28.4 78L-71.9 41.5L-81.7 -14.4L-53.4 -63.6Z" fill="none" stroke="#888277" stroke-width="2"></path></g><g transform="translate(933 101)"><path d="M0 -60L38.6 -46L59.1 -10.4L52 30L20.5 56.4L-20.5 56.4L-52 30L-59.1 -10.4L-38.6 -46Z" fill="none" stroke="#888277" stroke-width="2"></path></g><g transform="translate(50 55)"><path d="M0 -51L32.8 -39.1L50.2 -8.9L44.2 25.5L17.4 47.9L-17.4 47.9L-44.2 25.5L-50.2 -8.9L-32.8 -39.1Z" fill="none" stroke="#888277" stroke-width="2"></path></g><g transform="translate(1110 546)"><path d="M0 -16L10.3 -12.3L15.8 -2.8L13.9 8L5.5 15L-5.5 15L-13.9 8L-15.8 -2.8L-10.3 -12.3Z" fill="none" stroke="#888277" stroke-width="2"></path></g><g transform="translate(698 460)"><path d="M0 -24L15.4 -18.4L23.6 -4.2L20.8 12L8.2 22.6L-8.2 22.6L-20.8 12L-23.6 -4.2L-15.4 -18.4Z" fill="none" stroke="#888277" stroke-width="2"></path></g><g transform="translate(226 74)"><path d="M0 -75L48.2 -57.5L73.9 -13L65 37.5L25.7 70.5L-25.7 70.5L-65 37.5L-73.9 -13L-48.2 -57.5Z" fill="none" stroke="#888277" stroke-width="2"></path></g><g transform="translate(507 532)"><path d="M0 -70L45 -53.6L68.9 -12.2L60.6 35L23.9 65.8L-23.9 65.8L-60.6 35L-68.9 -12.2L-45 -53.6Z" stroke="#888277" fill="none" stroke-width="2"></path></g><g transform="translate(495 19)"><path d="M0 -42L27 -32.2L41.4 -7.3L36.4 21L14.4 39.5L-14.4 39.5L-36.4 21L-41.4 -7.3L-27 -32.2Z" stroke="#888277" fill="none" stroke-width="2"></path></g><g transform="translate(1164 337)"><path d="M0 -48L30.9 -36.8L47.3 -8.3L41.6 24L16.4 45.1L-16.4 45.1L-41.6 24L-47.3 -8.3L-30.9 -36.8Z" stroke="#888277" fill="none" stroke-width="2"></path></g><g transform="translate(376 252)"><path d="M0 -50L32.1 -38.3L49.2 -8.7L43.3 25L17.1 47L-17.1 47L-43.3 25L-49.2 -8.7L-32.1 -38.3Z" stroke="#888277" fill="none" stroke-width="2"></path></g><g transform="translate(750 12)"><path d="M0 -56L36 -42.9L55.1 -9.7L48.5 28L19.2 52.6L-19.2 52.6L-48.5 28L-55.1 -9.7L-36 -42.9Z" stroke="#888277" fill="none" stroke-width="2"></path></g><g transform="translate(801 293)"><path d="M0 -56L36 -42.9L55.1 -9.7L48.5 28L19.2 52.6L-19.2 52.6L-48.5 28L-55.1 -9.7L-36 -42.9Z" stroke="#888277" fill="none" stroke-width="2"></path></g><g transform="translate(347 431)"><path d="M0 -61L39.2 -46.7L60.1 -10.6L52.8 30.5L20.9 57.3L-20.9 57.3L-52.8 30.5L-60.1 -10.6L-39.2 -46.7Z" stroke="#888277" fill="none" stroke-width="2"></path></g><g transform="translate(1270 198)"><path d="M0 -65L41.8 -49.8L64 -11.3L56.3 32.5L22.2 61.1L-22.2 61.1L-56.3 32.5L-64 -11.3L-41.8 -49.8Z" stroke="#888277" fill="none" stroke-width="2"></path></g></g></svg>