<svg xmlns="http://www.w3.org/2000/svg" version="1.1" xmlns:xlink="http://www.w3.org/1999/xlink" xmlns:svgjs="http://svgjs.dev/svgjs" width="1590" height="634" preserveAspectRatio="none" viewBox="0 0 1590 634"><g mask="url(&quot;#SvgjsMask1006&quot;)" fill="none"><rect width="1590" height="634" x="0" y="0" fill="rgba(88, 105, 230, 1)"></rect><path d="M63 634L697 0L1010.5 0L376.5 634z" fill="url(&quot;#SvgjsLinearGradient1007&quot;)"></path><path d="M381.8 634L1015.8 0L1137.3 0L503.3 634z" fill="url(&quot;#SvgjsLinearGradient1007&quot;)"></path><path d="M747.6 634L1381.6 0L1639.6 0L1005.6 634z" fill="url(&quot;#SvgjsLinearGradient1007&quot;)"></path><path d="M1571 634L937 0L497.5 0L1131.5 634z" fill="url(&quot;#SvgjsLinearGradient1008&quot;)"></path><path d="M1206.2 634L572.2 0L234.70000000000005 0L868.7 634z" fill="url(&quot;#SvgjsLinearGradient1008&quot;)"></path><path d="M820.4 634L186.39999999999998 0L-278.6 0L355.4 634z" fill="url(&quot;#SvgjsLinearGradient1008&quot;)"></path><path d="M1157.190944334752 634L1590 201.19094433475203L1590 634z" fill="url(&quot;#SvgjsLinearGradient1007&quot;)"></path><path d="M0 634L432.80905566524797 634L 0 201.19094433475203z" fill="url(&quot;#SvgjsLinearGradient1008&quot;)"></path></g><defs><mask id="SvgjsMask1006"><rect width="1590" height="634" fill="#ffffff"></rect></mask><linearGradient x1="0%" y1="100%" x2="100%" y2="0%" id="SvgjsLinearGradient1007"><stop stop-color="rgba(15, 70, 185, 0.2)" offset="0"></stop><stop stop-opacity="0" stop-color="rgba(15, 70, 185, 0.2)" offset="0.66"></stop></linearGradient><linearGradient x1="100%" y1="100%" x2="0%" y2="0%" id="SvgjsLinearGradient1008"><stop stop-color="rgba(15, 70, 185, 0.2)" offset="0"></stop><stop stop-opacity="0" stop-color="rgba(15, 70, 185, 0.2)" offset="0.66"></stop></linearGradient></defs></svg>