<svg xmlns="http://www.w3.org/2000/svg" version="1.1" xmlns:xlink="http://www.w3.org/1999/xlink" xmlns:svgjs="http://svgjs.dev/svgjs" width="1566" height="603" preserveAspectRatio="none" viewBox="0 0 1566 603"><g mask="url(&quot;#SvgjsMask1016&quot;)" fill="none"><rect width="1566" height="603" x="0" y="0" fill="rgba(88, 105, 230, 1)"></rect><path d="M -648.4323099752345,280.5 C -491.83,333.9 -178.63,568.7 134.5676900247655,547.5 C 447.77,526.3 604.37,166.9 917.5676900247655,174.5 C 1230.77,182.1 1570.88,611.1 1700.5676900247654,585.5 C 1830.25,559.9 1592.91,154.3 1566,46.5" stroke="rgba(120, 133, 163, 0.58)" stroke-width="2"></path><path d="M -919.9403617826937,552.5 C -763.34,470.1 -450.14,149.1 -136.94036178269369,140.5 C 176.26,131.9 332.86,510.3 646.0596382173063,509.5 C 959.26,508.7 1245.07,155.5 1429.0596382173062,136.5 C 1613.05,117.5 1538.61,358.9 1566,414.5" stroke="rgba(120, 133, 163, 0.58)" stroke-width="2"></path><path d="M -268.03396830441807,306.5 C -111.43,264.3 201.77,59.7 514.9660316955819,95.5 C 828.17,131.3 984.77,484.5 1297.966031695582,485.5 C 1611.17,486.5 2027.36,77.7 2080.966031695582,100.5 C 2134.57,123.3 1668.99,499.7 1566,599.5" stroke="rgba(120, 133, 163, 0.58)" stroke-width="2"></path><path d="M -1519.7496989131037,80.5 C -1363.15,146.3 -1049.95,421.3 -736.7496989131038,409.5 C -423.55,397.7 -266.95,11.7 46.25030108689623,21.5 C 359.45,31.3 525.3,415.7 829.2503010868962,458.5 C 1133.2,501.3 1418.65,280.1 1566,235.5" stroke="rgba(120, 133, 163, 0.58)" stroke-width="2"></path><path d="M -401.95795453310006,558.5 C -245.36,490.9 67.84,221.1 381.04204546689994,220.5 C 694.24,219.9 850.84,560.7 1164.0420454669,555.5 C 1477.24,550.3 1866.65,232.5 1947.0420454669,194.5 C 2027.43,156.5 1642.21,331.3 1566,365.5" stroke="rgba(120, 133, 163, 0.58)" stroke-width="2"></path></g><defs><mask id="SvgjsMask1016"><rect width="1566" height="603" fill="#ffffff"></rect></mask></defs></svg>